<?xml version="1.0" encoding="UTF-8"?> <svg xmlns="http://www.w3.org/2000/svg" xmlns:xlink="http://www.w3.org/1999/xlink" version="1.1" id="Layer_1" x="0px" y="0px" viewBox="0 0 216 216" style="enable-background:new 0 0 216 216;" xml:space="preserve"> <style type="text/css"> .st0{fill:#00BB9A;} .st1{fill:#FFFFFF;} .st2{clip-path:url(#SVGID_00000152235369646244721480000007553184676285734534_);} .st3{fill:#FFFFFF;stroke:#000000;stroke-width:0.4054;stroke-miterlimit:10;} .st4{fill:#EF1414;} .st5{fill:#FFC500;} .st6{clip-path:url(#SVGID_00000140726187915327504260000005706890721248021160_);} .st7{fill:#FFFFFF;stroke:#000000;stroke-width:0.2599;stroke-miterlimit:10;} .st8{fill:#A3D3FF;} .st9{clip-path:url(#SVGID_00000127009488384224713320000007102670149902247571_);} .st10{fill:#E3E9D9;} .st11{fill:#C93D3D;} .st12{display:none;} .st13{clip-path:url(#SVGID_00000100363622960805441240000015162408685496098433_);} .st14{fill:none;stroke:#000000;stroke-width:0.2628;stroke-miterlimit:10;} .st15{fill:#FF241E;} .st16{fill:none;stroke:#000000;stroke-width:0.3745;stroke-miterlimit:10;} .st17{fill:#A86EEB;} .st18{fill:none;stroke:#000000;stroke-width:0.4426;stroke-miterlimit:10;} </style> <path class="st5" d="M95.8,2.6c17.9,0,50.8,19.2,59,22.2c28,10.2,60.7,13.3,60.7,39.1c0,18.1-21.4,71.1-21,82.3 c0.8,22.7,22,34.5,5.5,54c-11.7,13.9-64.4,12.4-110.9,13.3c-47.7,1-80.1-25.8-87-79.1c-2.2-17.1,12.4-21.1,10.8-35.6 C10.2,74.4,2.1,85.1,2,48.6C1.9,32.1,60,2.6,95.8,2.6z"></path> <path d="M184.9,164.8H22.2c-2.5,0-4.5-2-4.5-4.5V63.9c0-2.5,2-4.5,4.5-4.5h162.7c2.5,0,4.5,2,4.5,4.5v96.5 C189.4,162.8,187.4,164.8,184.9,164.8z"></path> <g> <defs> <path id="SVGID_00000038372970650362073600000017955332317858073477_" d="M188.5,69.4V160c0,1.3-2,3.9-4.5,3.9H23.1 c-2.5,0-4.5-2.6-4.5-3.9V69.4H188.5z"></path> </defs> <use xlink:href="#SVGID_00000038372970650362073600000017955332317858073477_" style="overflow:visible;fill:#FFFFFF;"></use> <clipPath id="SVGID_00000101061058516490897430000010390583157191173270_"> <use xlink:href="#SVGID_00000038372970650362073600000017955332317858073477_" style="overflow:visible;"></use> </clipPath> </g> <g> <path class="st1" d="M18.4,69.8v-5c0-2.6,2.1-4.7,4.7-4.7H184c2.6,0,4.7,2.1,4.7,4.7v5H18.4z"></path> <path d="M184,60.2c2.5,0,4.5,2,4.5,4.5v4.9H18.6v-4.9c0-2.5,2-4.5,4.5-4.5H184 M184,59.8H23.1c-2.7,0-4.9,2.2-4.9,4.9v4.9v0.4h0.4 h169.9h0.4v-0.4v-4.9C188.9,62,186.7,59.8,184,59.8L184,59.8z"></path> </g> <circle class="st15" cx="24.5" cy="64.9" r="1.8"></circle> <circle class="st0" cx="35.5" cy="64.9" r="1.8"></circle> <circle class="st5" cx="30" cy="64.9" r="1.8"></circle> <rect x="22.7" y="112.7" class="st0" width="28.3" height="30.9"></rect> <rect x="56.1" y="128.1" class="st8" width="28.3" height="15.5"></rect> <rect x="89.4" y="122.5" class="st5" width="28.3" height="21.1"></rect> <rect x="122.7" y="108.9" class="st17" width="28.3" height="34.7"></rect> <rect x="156.1" y="100" class="st15" width="28.3" height="43.6"></rect> <g> <path d="M30.4,147.7v0.2h-1.2v0.9h1v0.2h-1v1h1.3v0.2h-1.5v-2.6H30.4z"></path> <path d="M33.5,150.3h-0.2v-1.3c0-0.3-0.1-0.4-0.3-0.4c-0.3,0-0.6,0.3-0.6,0.9v0.8h-0.2v-1.3c0-0.3-0.1-0.4-0.3-0.4 c-0.3,0-0.6,0.3-0.6,0.9v0.8H31v-1.9h0.2v0.4c0.1-0.2,0.3-0.4,0.6-0.4c0.3,0,0.5,0.2,0.5,0.4c0.1-0.2,0.4-0.4,0.6-0.4 c0.4,0,0.5,0.2,0.5,0.6V150.3z"></path> <path d="M34.9,148.4c0.6,0,0.9,0.5,0.9,1c0,0.5-0.3,1-0.9,1s-0.9-0.5-0.9-1C34,148.9,34.3,148.4,34.9,148.4z M34.9,150.1 c0.4,0,0.6-0.4,0.6-0.8s-0.2-0.8-0.6-0.8s-0.6,0.4-0.6,0.8S34.5,150.1,34.9,150.1z"></path> <path d="M36.1,148.4h0.3v-0.6l0.2-0.2v0.8h0.5v0.2h-0.5v1.2c0,0.2,0.1,0.3,0.3,0.3c0.1,0,0.2,0,0.2-0.1l0.1,0.2 c-0.1,0-0.2,0.1-0.3,0.1c-0.3,0-0.5-0.2-0.5-0.6v-1.1h-0.3V148.4z"></path> <path d="M37.7,147.7c0.1,0,0.2,0.1,0.2,0.2c0,0.1-0.1,0.2-0.2,0.2c-0.1,0-0.2-0.1-0.2-0.2C37.5,147.8,37.6,147.7,37.7,147.7z M37.9,148.4v1.9h-0.2v-1.9H37.9z"></path> <path d="M39.3,148.4c0.6,0,0.9,0.5,0.9,1c0,0.5-0.3,1-0.9,1s-0.9-0.5-0.9-1C38.4,148.9,38.7,148.4,39.3,148.4z M39.3,150.1 c0.4,0,0.6-0.4,0.6-0.8s-0.2-0.8-0.6-0.8s-0.6,0.4-0.6,0.8S38.9,150.1,39.3,150.1z"></path> <path d="M42.2,150.3h-0.2v-1.3c0-0.3-0.1-0.4-0.4-0.4c-0.3,0-0.6,0.3-0.6,0.9v0.8h-0.2v-1.9h0.2v0.4c0.1-0.2,0.4-0.4,0.6-0.4 c0.4,0,0.6,0.2,0.6,0.6V150.3z"></path> <path d="M44.1,150.3h-0.2l-0.1-0.3c-0.1,0.2-0.3,0.3-0.6,0.3c-0.3,0-0.6-0.2-0.6-0.6c0-0.4,0.3-0.6,0.9-0.6h0.3v-0.1 c0-0.3-0.2-0.5-0.4-0.5c-0.3,0-0.4,0.2-0.4,0.4l-0.2-0.1c0.1-0.3,0.3-0.5,0.7-0.5c0.4,0,0.7,0.2,0.7,0.7V150.3z M43.3,150.1 c0.2,0,0.6-0.2,0.6-0.7v-0.1h-0.3c-0.4,0-0.6,0.2-0.6,0.4C42.9,150,43,150.1,43.3,150.1z"></path> <path d="M44.9,147.7v2.7h-0.2v-2.7H44.9z"></path> <path d="M28.1,154.8h-0.2v-2.6h0.2V154.8z"></path> <path d="M30.1,154.8h-0.2v-1.3c0-0.3-0.1-0.4-0.4-0.4c-0.3,0-0.6,0.3-0.6,0.9v0.8h-0.2v-1.9h0.2v0.4c0.1-0.2,0.4-0.4,0.6-0.4 c0.4,0,0.6,0.2,0.6,0.6V154.8z"></path> <path d="M30.5,152.9h0.3v-0.6l0.2-0.2v0.8h0.5v0.2h-0.5v1.2c0,0.2,0.1,0.3,0.3,0.3c0.1,0,0.2,0,0.2-0.1l0.1,0.2 c-0.1,0-0.2,0.1-0.3,0.1c-0.3,0-0.5-0.2-0.5-0.6v-1.1h-0.3V152.9z"></path> <path d="M33.6,153.9h-1.4c0,0.4,0.2,0.8,0.6,0.8c0.3,0,0.4-0.1,0.6-0.4l0.2,0.1c-0.2,0.4-0.4,0.5-0.8,0.5c-0.5,0-0.8-0.4-0.8-1 c0-0.6,0.3-1,0.8-1c0.5,0,0.8,0.3,0.8,0.9V153.9z M32.2,153.7h1.2c0-0.3-0.2-0.5-0.6-0.5C32.5,153.1,32.2,153.4,32.2,153.7z"></path> <path d="M34.4,152.2v2.7h-0.2v-2.7H34.4z"></path> <path d="M35.2,152.2v2.7h-0.2v-2.7H35.2z"></path> <path d="M35.8,152.2c0.1,0,0.2,0.1,0.2,0.2c0,0.1-0.1,0.2-0.2,0.2c-0.1,0-0.2-0.1-0.2-0.2C35.6,152.3,35.7,152.2,35.8,152.2z M35.9,152.9v1.9h-0.2v-1.9H35.9z"></path> <path d="M37.2,152.9c0.1,0,0.2,0,0.3,0.1l0.3-0.2L38,153l-0.3,0.1c0.1,0.1,0.1,0.2,0.1,0.4c0,0.4-0.3,0.6-0.6,0.6 c-0.1,0-0.3,0-0.4-0.1c-0.1,0-0.2,0.1-0.2,0.2c0,0.1,0.1,0.2,0.2,0.2h0.5c0.3,0,0.6,0.1,0.6,0.5c0,0.5-0.3,0.7-0.8,0.7 c-0.5,0-0.8-0.2-0.8-0.6c0-0.2,0.1-0.3,0.2-0.4c-0.1-0.1-0.1-0.2-0.1-0.3c0-0.2,0.1-0.3,0.2-0.3c-0.1-0.1-0.1-0.3-0.1-0.4 C36.6,153.2,36.8,152.9,37.2,152.9z M37,154.7c-0.1,0-0.1,0-0.2,0c-0.1,0.1-0.2,0.2-0.2,0.3c0,0.2,0.2,0.4,0.6,0.4 c0.4,0,0.6-0.2,0.6-0.4c0-0.2-0.1-0.3-0.4-0.3H37z M37.2,154c0.2,0,0.4-0.2,0.4-0.4s-0.2-0.4-0.4-0.4c-0.2,0-0.4,0.2-0.4,0.4 S37,154,37.2,154z"></path> <path d="M39.9,153.9h-1.4c0,0.4,0.2,0.8,0.6,0.8c0.3,0,0.4-0.1,0.6-0.4l0.2,0.1c-0.2,0.4-0.4,0.5-0.8,0.5c-0.5,0-0.8-0.4-0.8-1 c0-0.6,0.3-1,0.8-1c0.5,0,0.8,0.3,0.8,0.9V153.9z M38.5,153.7h1.2c0-0.3-0.2-0.5-0.6-0.5C38.8,153.1,38.6,153.4,38.5,153.7z"></path> <path d="M41.9,154.8h-0.2v-1.3c0-0.3-0.1-0.4-0.4-0.4c-0.3,0-0.6,0.3-0.6,0.9v0.8h-0.2v-1.9h0.2v0.4c0.1-0.2,0.4-0.4,0.6-0.4 c0.4,0,0.6,0.2,0.6,0.6V154.8z"></path> <path d="M44,154.3c-0.1,0.3-0.4,0.5-0.8,0.5c-0.6,0-0.8-0.5-0.8-1s0.3-1,0.8-1c0.4,0,0.6,0.2,0.8,0.5l-0.2,0.1 c-0.1-0.2-0.3-0.4-0.6-0.4c-0.4,0-0.6,0.3-0.6,0.8s0.2,0.8,0.6,0.8c0.3,0,0.4-0.1,0.6-0.4L44,154.3z"></path> <path d="M46,153.9h-1.4c0,0.4,0.2,0.8,0.6,0.8c0.3,0,0.4-0.1,0.6-0.4l0.2,0.1c-0.2,0.4-0.4,0.5-0.8,0.5c-0.5,0-0.8-0.4-0.8-1 c0-0.6,0.3-1,0.8-1c0.5,0,0.8,0.3,0.8,0.9V153.9z M44.6,153.7h1.2c0-0.3-0.2-0.5-0.6-0.5C44.9,153.1,44.7,153.4,44.6,153.7z"></path> </g> <g> <path d="M63.4,147.6h1.8v0.2h-0.8v2.4h-0.2v-2.4h-0.8V147.6z"></path> <path d="M67.1,150.2h-0.2v-1.3c0-0.3-0.1-0.4-0.4-0.4c-0.3,0-0.6,0.3-0.6,0.9v0.8h-0.2v-2.7h0.2v1.2c0.1-0.3,0.4-0.4,0.7-0.4 c0.4,0,0.6,0.2,0.6,0.6V150.2z"></path> <path d="M68.5,148.3c0.6,0,0.9,0.5,0.9,1c0,0.5-0.3,1-0.9,1c-0.6,0-0.9-0.5-0.9-1C67.6,148.7,68,148.3,68.5,148.3z M68.5,150 c0.4,0,0.6-0.4,0.6-0.8c0-0.4-0.2-0.8-0.6-0.8c-0.4,0-0.6,0.4-0.6,0.8C67.9,149.6,68.1,150,68.5,150z"></path> <path d="M69.9,148.3h0.2v1.3c0,0.3,0.1,0.4,0.4,0.4c0.3,0,0.6-0.3,0.6-0.9v-0.8h0.2v1.9h-0.2v-0.4c-0.1,0.2-0.4,0.4-0.6,0.4 c-0.4,0-0.6-0.2-0.6-0.6V148.3z"></path> <path d="M72.7,148.3c0.1,0,0.2,0,0.3,0.1l0.3-0.2l0.1,0.2l-0.3,0.1c0.1,0.1,0.1,0.2,0.1,0.4c0,0.4-0.3,0.6-0.6,0.6 c-0.1,0-0.3,0-0.4-0.1c-0.1,0-0.2,0.1-0.2,0.2c0,0.1,0.1,0.2,0.2,0.2h0.5c0.3,0,0.6,0.1,0.6,0.5c0,0.5-0.3,0.7-0.8,0.7 c-0.5,0-0.8-0.2-0.8-0.6c0-0.2,0.1-0.3,0.2-0.4c-0.1-0.1-0.1-0.2-0.1-0.3c0-0.2,0.1-0.3,0.2-0.3c-0.1-0.1-0.1-0.3-0.1-0.4 C72,148.5,72.3,148.3,72.7,148.3z M72.5,150c-0.1,0-0.1,0-0.2,0c-0.1,0.1-0.2,0.2-0.2,0.3c0,0.2,0.2,0.4,0.6,0.4 c0.4,0,0.6-0.2,0.6-0.4c0-0.2-0.1-0.3-0.4-0.3H72.5z M72.7,149.3c0.2,0,0.4-0.2,0.4-0.4c0-0.3-0.2-0.4-0.4-0.4 c-0.2,0-0.4,0.2-0.4,0.4C72.2,149.2,72.4,149.3,72.7,149.3z"></path> <path d="M75.4,150.2h-0.2v-1.3c0-0.3-0.1-0.4-0.4-0.4c-0.3,0-0.6,0.3-0.6,0.9v0.8h-0.2v-2.7h0.2v1.2c0.1-0.3,0.4-0.4,0.7-0.4 c0.4,0,0.6,0.2,0.6,0.6V150.2z"></path> <path d="M75.7,148.3h0.3v-0.6l0.2-0.2v0.8h0.5v0.2h-0.5v1.2c0,0.2,0.1,0.3,0.3,0.3c0.1,0,0.2,0,0.2-0.1l0.1,0.2 c-0.1,0-0.2,0.1-0.3,0.1c-0.3,0-0.5-0.2-0.5-0.6v-1.1h-0.3V148.3z"></path> </g> <g> <path d="M159.5,149.2c-0.1,0.5-0.5,0.7-1,0.7c-0.6,0-1.2-0.4-1.2-1.3s0.6-1.3,1.2-1.3c0.5,0,0.9,0.3,1,0.7l-0.2,0.1 c-0.1-0.4-0.3-0.6-0.7-0.6c-0.5,0-0.9,0.4-0.9,1.1c0,0.7,0.4,1.1,0.9,1.1c0.4,0,0.6-0.2,0.7-0.6L159.5,149.2z"></path> <path d="M160.7,148c0.6,0,0.9,0.5,0.9,1c0,0.5-0.3,1-0.9,1s-0.9-0.5-0.9-1C159.8,148.5,160.2,148,160.7,148z M160.7,149.8 c0.4,0,0.6-0.4,0.6-0.8c0-0.4-0.2-0.8-0.6-0.8c-0.4,0-0.6,0.4-0.6,0.8C160.1,149.4,160.3,149.8,160.7,149.8z"></path> <path d="M164.6,149.9h-0.2v-1.3c0-0.3-0.1-0.4-0.3-0.4c-0.3,0-0.6,0.3-0.6,0.9v0.8h-0.2v-1.3c0-0.3-0.1-0.4-0.3-0.4 c-0.3,0-0.6,0.3-0.6,0.9v0.8h-0.2v-1.9h0.2v0.4c0.1-0.2,0.3-0.4,0.6-0.4c0.3,0,0.5,0.2,0.5,0.4c0.1-0.2,0.4-0.4,0.6-0.4 c0.4,0,0.5,0.2,0.5,0.6V149.9z"></path> <path d="M167.7,149.9h-0.2v-1.3c0-0.3-0.1-0.4-0.3-0.4c-0.3,0-0.6,0.3-0.6,0.9v0.8h-0.2v-1.3c0-0.3-0.1-0.4-0.3-0.4 c-0.3,0-0.6,0.3-0.6,0.9v0.8h-0.2v-1.9h0.2v0.4c0.1-0.2,0.3-0.4,0.6-0.4c0.3,0,0.5,0.2,0.5,0.4c0.1-0.2,0.4-0.4,0.6-0.4 c0.4,0,0.5,0.2,0.5,0.6V149.9z"></path> <path d="M168.3,148.1h0.2v1.3c0,0.3,0.1,0.4,0.4,0.4c0.3,0,0.6-0.3,0.6-0.9v-0.8h0.2v1.9h-0.2v-0.4c-0.1,0.2-0.4,0.4-0.6,0.4 c-0.4,0-0.6-0.2-0.6-0.6V148.1z"></path> <path d="M171.8,149.9h-0.2v-1.3c0-0.3-0.1-0.4-0.4-0.4c-0.3,0-0.6,0.3-0.6,0.9v0.8h-0.2v-1.9h0.2v0.4c0.1-0.2,0.4-0.4,0.6-0.4 c0.4,0,0.6,0.2,0.6,0.6V149.9z"></path> <path d="M172.5,147.3c0.1,0,0.2,0.1,0.2,0.2c0,0.1-0.1,0.2-0.2,0.2c-0.1,0-0.2-0.1-0.2-0.2C172.3,147.4,172.4,147.3,172.5,147.3z M172.6,148.1v1.9h-0.2v-1.9H172.6z"></path> <path d="M174.8,149.4c-0.1,0.3-0.4,0.5-0.8,0.5c-0.6,0-0.8-0.5-0.8-1c0-0.5,0.3-1,0.8-1c0.4,0,0.6,0.2,0.8,0.5l-0.2,0.1 c-0.1-0.2-0.3-0.4-0.6-0.4c-0.4,0-0.6,0.3-0.6,0.8c0,0.4,0.2,0.8,0.6,0.8c0.3,0,0.4-0.1,0.6-0.4L174.8,149.4z"></path> <path d="M176.5,149.9h-0.2l-0.1-0.3c-0.1,0.2-0.3,0.3-0.6,0.3c-0.3,0-0.6-0.2-0.6-0.6c0-0.4,0.3-0.6,0.9-0.6h0.3v-0.1 c0-0.3-0.2-0.5-0.4-0.5c-0.3,0-0.4,0.2-0.4,0.4l-0.2-0.1c0.1-0.3,0.3-0.5,0.7-0.5c0.4,0,0.7,0.2,0.7,0.7V149.9z M175.7,149.8 c0.2,0,0.6-0.2,0.6-0.7V149H176c-0.4,0-0.6,0.2-0.6,0.4C175.4,149.6,175.5,149.8,175.7,149.8z"></path> <path d="M176.9,148.1h0.3v-0.6l0.2-0.2v0.8h0.5v0.2h-0.5v1.2c0,0.2,0.1,0.3,0.3,0.3c0.1,0,0.2,0,0.2-0.1l0.1,0.2 c-0.1,0-0.2,0.1-0.3,0.1c-0.3,0-0.5-0.2-0.5-0.6v-1.1h-0.3V148.1z"></path> <path d="M178.6,147.3c0.1,0,0.2,0.1,0.2,0.2c0,0.1-0.1,0.2-0.2,0.2c-0.1,0-0.2-0.1-0.2-0.2C178.4,147.4,178.4,147.3,178.6,147.3z M178.7,148.1v1.9h-0.2v-1.9H178.7z"></path> <path d="M180.1,148c0.6,0,0.9,0.5,0.9,1c0,0.5-0.3,1-0.9,1s-0.9-0.5-0.9-1C179.2,148.5,179.5,148,180.1,148z M180.1,149.8 c0.4,0,0.6-0.4,0.6-0.8c0-0.4-0.2-0.8-0.6-0.8c-0.4,0-0.6,0.4-0.6,0.8C179.5,149.4,179.7,149.8,180.1,149.8z"></path> <path d="M183,149.9h-0.2v-1.3c0-0.3-0.1-0.4-0.4-0.4c-0.3,0-0.6,0.3-0.6,0.9v0.8h-0.2v-1.9h0.2v0.4c0.1-0.2,0.4-0.4,0.6-0.4 c0.4,0,0.6,0.2,0.6,0.6V149.9z"></path> </g> <g> <path d="M69.6,87.4l-0.1-1.3h0.7c0.2,0.8,0.6,1.3,1.3,1.3c0.5,0,0.9-0.2,0.9-0.7c0-0.4-0.2-0.6-1.1-0.8c-1.1-0.3-1.7-0.8-1.7-1.7 c0-1,0.8-1.7,1.9-1.7c0.7,0,1.3,0.2,1.7,0.5v1.1h-0.6c-0.2-0.6-0.5-1.1-1.2-1.1c-0.5,0-0.8,0.3-0.8,0.7c0,0.5,0.3,0.6,1.1,0.9 c1.1,0.3,1.7,0.7,1.7,1.8c0,1.1-0.9,1.7-2,1.7C70.6,87.9,69.9,87.6,69.6,87.4z"></path> <path d="M75.6,86.9c0,0.3,0.1,0.4,0.5,0.4v0.5h-2.2v-0.5c0.3,0,0.5-0.1,0.5-0.4v-3.9l-0.4-0.4v-0.3l1.5-0.3h0.2V86.9z M76.6,84.6 c0.1-0.1,0.2-0.2,0.2-0.3c0-0.2-0.1-0.2-0.5-0.2v-0.4h1.9v0.4c-0.3,0.1-0.5,0.1-0.7,0.3l-0.8,0.7l1.6,2.2v0.4h-1.3l-1.5-2.2 L76.6,84.6z"></path> <path d="M80.5,86.9c0,0.3,0.1,0.4,0.5,0.4v0.5h-2.2v-0.5c0.3,0,0.5-0.1,0.5-0.4v-2.3l-0.4-0.4V84l1.5-0.4h0.2V86.9z M79.1,82.6 c0-0.4,0.3-0.7,0.7-0.7c0.4,0,0.7,0.3,0.7,0.7c0,0.4-0.3,0.7-0.7,0.7C79.4,83.3,79.1,83,79.1,82.6z"></path> <path d="M83.1,86.9c0,0.3,0.1,0.4,0.5,0.4v0.5h-2.2v-0.5c0.3,0,0.5-0.1,0.5-0.4v-3.9l-0.4-0.4v-0.3l1.5-0.3h0.2V86.9z"></path> <path d="M85.7,86.9c0,0.3,0.1,0.4,0.5,0.4v0.5h-2.2v-0.5c0.3,0,0.5-0.1,0.5-0.4v-3.9L84,82.6v-0.3l1.5-0.3h0.2V86.9z"></path> <path d="M88.1,82.5h2.4c2,0,3,1,3,2.5c0,1.7-1.1,2.7-2.8,2.7h-2.6v-0.5c0.5,0,0.6-0.1,0.6-0.5v-3.3c0-0.4-0.1-0.5-0.6-0.5V82.5z M90,83v3.7c0,0.4,0.2,0.5,0.6,0.5h0.1c0.9,0,1.4-0.7,1.4-2.1c0-1.3-0.6-2.1-1.8-2.1H90z"></path> <path d="M97.7,85.3v0.3h-2.5c0,0.8,0.5,1.3,1.2,1.3c0.5,0,0.8-0.2,1.1-0.5l0.2,0.1c-0.2,0.8-0.8,1.4-1.7,1.4c-1.1,0-1.9-0.8-1.9-2 c0-1.4,0.9-2.3,2-2.3C97.2,83.6,97.7,84.4,97.7,85.3z M95.3,85.2h1.4c0-0.6-0.2-1.1-0.6-1.1C95.5,84.1,95.3,84.6,95.3,85.2z"></path> <path d="M102.5,84.1c-0.3,0.1-0.4,0.1-0.4,0.3l-1.6,3.4h-0.4l-1.7-3.4c-0.1-0.2-0.2-0.2-0.4-0.3v-0.4h2.4v0.4 c-0.4,0.1-0.5,0.1-0.5,0.3c0,0.1,0,0.1,0.1,0.2l0.7,1.6l0.7-1.6c0-0.1,0.1-0.2,0.1-0.2c0-0.2-0.1-0.2-0.5-0.3v-0.4h1.6V84.1z"></path> <path d="M106.2,85.3v0.3h-2.5c0,0.8,0.5,1.3,1.2,1.3c0.5,0,0.8-0.2,1.1-0.5l0.2,0.1c-0.2,0.8-0.8,1.4-1.7,1.4c-1.1,0-1.9-0.8-1.9-2 c0-1.4,0.9-2.3,2-2.3C105.6,83.6,106.2,84.4,106.2,85.3z M103.7,85.2h1.4c0-0.6-0.2-1.1-0.6-1.1C104,84.1,103.7,84.6,103.7,85.2z"></path> <path d="M108.4,86.9c0,0.3,0.1,0.4,0.5,0.4v0.5h-2.2v-0.5c0.3,0,0.5-0.1,0.5-0.4v-3.9l-0.4-0.4v-0.3l1.5-0.3h0.2V86.9z"></path> <path d="M109.3,85.8c0-1.3,0.9-2.2,2.1-2.2c1.2,0,2,0.9,2,2c0,1.3-0.9,2.2-2.1,2.2C110.1,87.9,109.3,87,109.3,85.8z M112.2,85.9 c0-1-0.3-1.8-0.8-1.8c-0.5,0-0.7,0.6-0.7,1.4c0,1,0.3,1.8,0.9,1.8C111.9,87.4,112.2,86.8,112.2,85.9z"></path> <path d="M115.7,88.4c0,0.3,0.1,0.4,0.5,0.4v0.5h-2.2v-0.5c0.3,0,0.5-0.1,0.5-0.4v-3.7l-0.4-0.4V84l1.5-0.4h0.2v0.7 c0.2-0.4,0.6-0.7,1.2-0.7c1,0,1.6,0.7,1.6,1.9c0,1.5-0.9,2.3-2.1,2.3c-0.3,0-0.6-0.1-0.7-0.2V88.4z M117.2,85.9 c0-0.9-0.4-1.5-1-1.5c-0.2,0-0.4,0.1-0.5,0.1v2c0,0.5,0.2,0.8,0.6,0.8C116.8,87.4,117.2,86.8,117.2,85.9z"></path> <path d="M124,87.8v-0.5c0.3,0,0.4-0.1,0.4-0.4V85c0-0.4-0.1-0.5-0.5-0.5c-0.3,0-0.5,0.1-0.7,0.2v2.3c0,0.3,0.1,0.4,0.4,0.4v0.5 h-2.1v-0.5c0.3,0,0.4-0.1,0.4-0.4V85c0-0.4-0.1-0.5-0.5-0.5c-0.3,0-0.5,0.1-0.7,0.2v2.3c0,0.3,0.1,0.4,0.4,0.4v0.5H119v-0.5 c0.3,0,0.5-0.1,0.5-0.4v-2.3l-0.4-0.4V84l1.5-0.4h0.2v0.8c0.3-0.4,0.7-0.8,1.4-0.8c0.5,0,0.9,0.2,1.1,0.8c0.3-0.3,0.8-0.8,1.5-0.8 c0.7,0,1.1,0.4,1.1,1.2v2.1c0,0.3,0.1,0.4,0.5,0.4v0.5H124z"></path> <path d="M130.2,85.3v0.3h-2.5c0,0.8,0.5,1.3,1.2,1.3c0.5,0,0.8-0.2,1.1-0.5l0.2,0.1c-0.2,0.8-0.8,1.4-1.7,1.4c-1.1,0-1.9-0.8-1.9-2 c0-1.4,0.9-2.3,2-2.3C129.6,83.6,130.2,84.4,130.2,85.3z M127.7,85.2h1.4c0-0.6-0.2-1.1-0.6-1.1C128,84.1,127.8,84.6,127.7,85.2z"></path> <path d="M133.8,85c0-0.4-0.1-0.5-0.5-0.5c-0.3,0-0.6,0.1-0.8,0.2v2.3c0,0.3,0.1,0.4,0.4,0.4v0.5h-2.2v-0.5c0.3,0,0.5-0.1,0.5-0.4 v-2.3l-0.4-0.4V84l1.5-0.4h0.2v0.8c0.3-0.4,0.8-0.8,1.4-0.8c0.7,0,1.1,0.4,1.1,1.2v2.1c0,0.3,0.1,0.4,0.5,0.4v0.5h-2.2v-0.5 c0.3,0,0.4-0.1,0.4-0.4V85z"></path> <path d="M137.5,83.7h1v0.5h-1v2.4c0,0.4,0.2,0.5,0.5,0.5c0.2,0,0.4-0.1,0.6-0.2l0.1,0.3c-0.3,0.4-0.8,0.5-1.3,0.5 c-0.7,0-1.1-0.4-1.1-1.1v-2.5h-0.5v-0.4c0.5-0.2,1-0.6,1.4-1.1h0.4V83.7z"></path> </g> <g> <path d="M97.9,149.2v1.2h-0.2v-2.6h0.9c0.5,0,0.8,0.3,0.8,0.7s-0.3,0.7-0.8,0.7H97.9z M99,148.5c0-0.3-0.1-0.5-0.5-0.5h-0.6v1h0.6 C98.9,148.9,99,148.7,99,148.5z"></path> <path d="M101.2,149.4h-1.4c0,0.4,0.2,0.8,0.6,0.8c0.3,0,0.4-0.1,0.6-0.4l0.2,0.1c-0.2,0.4-0.4,0.5-0.8,0.5c-0.5,0-0.8-0.4-0.8-1 c0-0.6,0.3-1,0.8-1c0.5,0,0.8,0.3,0.8,0.9V149.4z M99.8,149.2h1.2c0-0.3-0.2-0.5-0.6-0.5C100.1,148.7,99.9,148.9,99.8,149.2z"></path> <path d="M102.5,148.4c0.6,0,0.9,0.5,0.9,1s-0.3,1-0.9,1s-0.9-0.5-0.9-1S102,148.4,102.5,148.4z M102.5,150.2c0.4,0,0.6-0.4,0.6-0.8 s-0.2-0.8-0.6-0.8s-0.6,0.4-0.6,0.8S102.1,150.2,102.5,150.2z"></path> <path d="M104,151.1v-2.7h0.2v0.2c0.1-0.1,0.3-0.3,0.6-0.3c0.6,0,0.8,0.4,0.8,1c0,0.5-0.3,1-0.8,1c-0.2,0-0.5-0.1-0.6-0.3v1H104z M104.8,148.7c-0.4,0-0.6,0.3-0.6,0.8c0,0.4,0.2,0.8,0.6,0.8c0.4,0,0.6-0.3,0.6-0.8C105.4,149,105.2,148.7,104.8,148.7z"></path> <path d="M106.3,147.7v2.7h-0.2v-2.7H106.3z"></path> <path d="M108.5,149.4h-1.4c0,0.4,0.2,0.8,0.6,0.8c0.3,0,0.4-0.1,0.6-0.4l0.2,0.1c-0.2,0.4-0.4,0.5-0.8,0.5c-0.5,0-0.8-0.4-0.8-1 c0-0.6,0.3-1,0.8-1c0.5,0,0.8,0.3,0.8,0.9V149.4z M107.1,149.2h1.2c0-0.3-0.2-0.5-0.6-0.5C107.4,148.7,107.2,148.9,107.1,149.2z"></path> </g> <g> <path d="M126.5,149v1.2h-0.2v-2.6h0.9c0.5,0,0.8,0.3,0.8,0.7c0,0.5-0.3,0.7-0.8,0.7H126.5z M127.6,148.3c0-0.3-0.1-0.5-0.5-0.5 h-0.6v1h0.6C127.5,148.8,127.6,148.6,127.6,148.3z"></path> <path d="M129.8,149.2h-1.4c0,0.4,0.2,0.8,0.6,0.8c0.3,0,0.4-0.1,0.6-0.4l0.2,0.1c-0.2,0.4-0.4,0.5-0.8,0.5c-0.5,0-0.8-0.4-0.8-1 c0-0.6,0.3-1,0.8-1c0.5,0,0.8,0.3,0.8,0.9V149.2z M128.4,149h1.2c0-0.3-0.2-0.5-0.6-0.5C128.7,148.5,128.5,148.7,128.4,149z"></path> <path d="M131.4,148.5c-0.1,0-0.2-0.1-0.3-0.1c-0.3,0-0.5,0.3-0.5,1v0.7h-0.2v-1.9h0.2v0.3c0.1-0.2,0.3-0.4,0.6-0.4 c0.1,0,0.2,0,0.3,0.1L131.4,148.5z"></path> <path d="M131.7,148.3h0.3v-0.1c0-0.4,0.2-0.6,0.6-0.6c0.1,0,0.2,0,0.2,0l0,0.2c0,0-0.1,0-0.2,0c-0.2,0-0.3,0.1-0.3,0.4v0.2h0.5v0.2 h-0.5v1.7H132v-1.7h-0.3V148.3z"></path> <path d="M133.8,148.3c0.6,0,0.9,0.5,0.9,1c0,0.5-0.3,1-0.9,1s-0.9-0.5-0.9-1C132.9,148.7,133.2,148.3,133.8,148.3z M133.8,150 c0.4,0,0.6-0.4,0.6-0.8c0-0.4-0.2-0.8-0.6-0.8c-0.4,0-0.6,0.4-0.6,0.8C133.1,149.6,133.4,150,133.8,150z"></path> <path d="M136.1,148.5c-0.1,0-0.2-0.1-0.3-0.1c-0.3,0-0.5,0.3-0.5,1v0.7h-0.2v-1.9h0.2v0.3c0.1-0.2,0.3-0.4,0.6-0.4 c0.1,0,0.2,0,0.3,0.1L136.1,148.5z"></path> <path d="M139.1,150.2h-0.2v-1.3c0-0.3-0.1-0.4-0.3-0.4c-0.3,0-0.6,0.3-0.6,0.9v0.8h-0.2v-1.3c0-0.3-0.1-0.4-0.3-0.4 c-0.3,0-0.6,0.3-0.6,0.9v0.8h-0.2v-1.9h0.2v0.4c0.1-0.2,0.3-0.4,0.6-0.4c0.3,0,0.5,0.1,0.5,0.4c0.1-0.2,0.4-0.4,0.6-0.4 c0.4,0,0.5,0.2,0.5,0.6V150.2z"></path> <path d="M141,150.2h-0.2l-0.1-0.3c-0.1,0.2-0.3,0.3-0.6,0.3c-0.3,0-0.6-0.2-0.6-0.6c0-0.4,0.3-0.6,0.9-0.6h0.3v-0.1 c0-0.3-0.2-0.5-0.4-0.5c-0.3,0-0.4,0.2-0.4,0.4l-0.2-0.1c0.1-0.3,0.3-0.5,0.7-0.5c0.4,0,0.7,0.2,0.7,0.7V150.2z M140.2,150 c0.2,0,0.6-0.2,0.6-0.7v-0.1h-0.3c-0.4,0-0.6,0.2-0.6,0.4C139.8,149.9,140,150,140.2,150z"></path> <path d="M143,150.2h-0.2v-1.3c0-0.3-0.1-0.4-0.4-0.4c-0.3,0-0.6,0.3-0.6,0.9v0.8h-0.2v-1.9h0.2v0.4c0.1-0.2,0.4-0.4,0.6-0.4 c0.4,0,0.6,0.2,0.6,0.6V150.2z"></path> <path d="M145.1,149.7c-0.1,0.3-0.4,0.5-0.8,0.5c-0.6,0-0.8-0.5-0.8-1c0-0.5,0.3-1,0.8-1c0.4,0,0.6,0.2,0.8,0.5l-0.2,0.1 c-0.1-0.2-0.3-0.4-0.6-0.4c-0.4,0-0.6,0.3-0.6,0.8c0,0.4,0.2,0.8,0.6,0.8c0.3,0,0.4-0.1,0.6-0.4L145.1,149.7z"></path> <path d="M147.2,149.2h-1.4c0,0.4,0.2,0.8,0.6,0.8c0.3,0,0.4-0.1,0.6-0.4l0.2,0.1c-0.2,0.4-0.4,0.5-0.8,0.5c-0.5,0-0.8-0.4-0.8-1 c0-0.6,0.3-1,0.8-1c0.5,0,0.8,0.3,0.8,0.9V149.2z M145.7,149h1.2c0-0.3-0.2-0.5-0.6-0.5C146,148.5,145.8,148.7,145.7,149z"></path> </g> </svg> 