<?xml version="1.0" encoding="UTF-8"?> <svg xmlns="http://www.w3.org/2000/svg" xmlns:xlink="http://www.w3.org/1999/xlink" version="1.1" id="Layer_1" x="0px" y="0px" viewBox="0 0 216 216" style="enable-background:new 0 0 216 216;" xml:space="preserve"> <style type="text/css"> .st0{fill:#00BB9A;} .st1{fill:#FFFFFF;} .st2{clip-path:url(#SVGID_00000054981274778670935740000007068967812848555699_);} .st3{fill:#FFFFFF;stroke:#000000;stroke-width:0.4054;stroke-miterlimit:10;} .st4{fill:#EF1414;} .st5{fill:#FFC500;} .st6{clip-path:url(#SVGID_00000132781046525433412030000004626937866077611929_);} .st7{fill:#FFFFFF;stroke:#000000;stroke-width:0.2599;stroke-miterlimit:10;} .st8{fill:#A3D3FF;} .st9{clip-path:url(#SVGID_00000059988427548813224670000015053352438531190967_);} .st10{fill:#E3E9D9;} .st11{fill:#C93D3D;} .st12{display:none;} .st13{clip-path:url(#SVGID_00000084498830141898871350000016832331349520554133_);} .st14{fill:none;stroke:#000000;stroke-width:0.2628;stroke-miterlimit:10;} .st15{fill:#FF241E;} .st16{fill:none;stroke:#000000;stroke-width:0.3745;stroke-miterlimit:10;} .st17{fill:#A86EEB;} .st18{fill:none;stroke:#000000;stroke-width:0.4426;stroke-miterlimit:10;} </style> <path class="st8" d="M1.3,139.8c-5.9-20.5,9.4-44.7,18.8-59.9s43.6-62,82.7-62c64.5,0,112.7,67.6,113.1,87.6s-9.1,73.8-24.4,80.5 c-15.3,6.8-62.2,15.4-73.4,15.2C107.1,201,5.4,154,1.3,139.8z"></path> <g> <defs> <path id="SVGID_00000020388786867553633740000015211553063172799619_" d="M1.3,139.9c-5.9-20.5,9.4-44.7,18.8-59.9 s43.6-62,82.7-62c64.5,0,112.7,67.6,113.1,87.6s-9.1,73.8-24.4,80.5c-15.3,6.8-62.2,15.4-73.4,15.2 C107.1,201.2,5.4,154.1,1.3,139.9z"></path> </defs> <clipPath id="SVGID_00000166650285110953271390000014839629657101789364_"> <use xlink:href="#SVGID_00000020388786867553633740000015211553063172799619_" style="overflow:visible;"></use> </clipPath> <g style="clip-path:url(#SVGID_00000166650285110953271390000014839629657101789364_);"> <path d="M-42.3,184.4l274.9-56.2l84.6,15.1l-2.5,73.2c0,0-361.2,0.8-360,0C-44,215.7-42.3,184.4-42.3,184.4z"></path> <path class="st10" d="M-42.7,185l274.9-56.2l84.6,15.1l-2.5,73.2c0,0-361.2,0.8-360,0C-44.4,216.3-42.7,185-42.7,185z"></path> <path d="M115.1,28.8c0,0-1.3,2.7-1.1,3.7c0.1,0.9,1.7,4.7,2.2,5.6c0.6,0.9,2.1,2.4,2.3,3.2c0.2,0.9,0,2.3-1,3.3 c-0.9,1-1.3,1.2-2.4,1.1c-1.1-0.1-3.2,0-3.2,0l-0.8-15.9L115.1,28.8z"></path> <path d="M184.5,144.8l27.6-1.1c0.5,0,0.9,0.6,0.9,1.1l-12.3,28.1c-0.3,0.7-0.4,0.8-0.9,0.9l-36.6,3.4c-1.6,0-2.1-1.6-2.1-2.1 l21.4-29.4C183,145.1,182.9,144.8,184.5,144.8z"></path> <path d="M150.8,134.1c0,0-20.8,1.1-25,0s-14.6-2.5-14.6-2.5l-6.2-25.1L83.1,73.1L48,58.8l-8.7,8.8L29.1,84.1 c0,0-11.6,25.9-12.8,80.8c-0.1,3.1-4,8.5-4,8.5L142,147.3L150.8,134.1z"></path> <ellipse cx="124.2" cy="184.4" rx="41.1" ry="11"></ellipse> <rect x="83.1" y="181.9" width="82.3" height="2.5"></rect> <g> <path class="st1" d="M124.2,193.1c-22.6,0-40.9-4.8-40.9-10.8c0-6,18.3-10.8,40.9-10.8s40.9,4.8,40.9,10.8 C165.1,188.2,146.8,193.1,124.2,193.1z"></path> <path d="M124.2,171.7c22,0,40.7,4.8,40.7,10.6s-18.6,10.6-40.7,10.6s-40.7-4.8-40.7-10.6S102.2,171.7,124.2,171.7 M124.2,171.2 c-22.7,0-41.1,4.9-41.1,11s18.4,11,41.1,11s41.1-4.9,41.1-11S147,171.2,124.2,171.2L124.2,171.2z"></path> </g> <path d="M109.2,179.1c0,0,3.3,3.6,5,4.2c6.5,2.3,31.6,1.5,33.8,1.2s5-0.6,6.3-1.6c1.3-1,3.5-3.2,2.8-4.8s-2.5-2.9-4.4-3.5 c-1.1-0.4-9.4-3-11.5-3.4c0,0-11.8-1.3-16.1-0.6c-8,1.3-10.4,3-12.4,4.4C110.4,176.6,108.3,178.1,109.2,179.1z"></path> <path class="st1" d="M114.7,174.1c0,0-4.2,2.8-4.6,3.2c-0.5,0.4-0.8,1.2,0.8,0.7c1.6-0.5,11.5-2.3,19.4-0.7s17.7,5.1,19,5.3 c1.3,0.2,3.1,0.5,4.6-0.5s2.4-1.5,2.5-2.7c0.2-1.2-0.6-2.7-2-3.5c-1.4-0.8-9.5-3.5-12.8-3.9c-3.3-0.4-10.3-1.5-13.1-1.3 s-9.5,1.6-10.5,2C117,172.8,114.7,174.1,114.7,174.1z"></path> <path d="M97.1,156.8c0,0,4.4-0.1,5.5,0c2,0.2,17.7-6.6,19.1-6.7c1.4-0.1,2.6,0.5,3.5,1.1c0.9,0.5,4.9,3,6.3,3.5 c1.4,0.5,6.8,3,7.8,3.6c1,0.6,6.7,6.8,8.2,8c1.5,1.2,2.2,2.5,2.9,3.5s2.2,3.9,0.8,4.5c-1.4,0.5-5.1-0.5-6.1-1 c-1-0.5-2.1-2-2.7-2.6c-0.5-0.6-1.4-1.7-1.4-1.7s0.9,2.3,0.5,2.8c-0.4,0.5-1.6,2.3-3.5,2.2c-1.8-0.1-3-1.9-3.8-3.3 s-1.8-3.2-2.4-3.9s-4.3-4.9-4.5-5c-0.2-0.1-3,0.2-3.7,0.4c-0.7,0.2-1.8,1.4-1.8,1.4s1.4,0.6,2.5,1.7c1.1,1.1,3.9,5.6,4.9,6.6 c1,1,2.7,3.4,3.6,4.3c0.9,0.9,2.7,3.7,2.2,5.2c-0.5,1.5-1.7,2.4-2.9,2.2c-1.2-0.2-3.1-1.5-4.5-3.4c-1.4-1.8-5.2-7-6.1-7.9 s-3.5-2.8-3.5-2.8s2.9,3.3,3.6,4s2.6,3,3.3,3.9s3.2,3.9,3.2,4.2c0.1,0.3-0.1,2-1.5,2.3c-1.5,0.3-3.3-0.7-3.7-1s-3.1-3.8-3.6-4.1 c-0.5-0.3-1.8-1.2-2.7-1.9c-0.9-0.8-2.4-2.2-3.3-2.1c-0.8,0.1-3.6,0.8-4.4,0.9c-0.8,0.1-8.9,0.9-9.8,0.7c-0.9-0.1-1.9-1.1-2.6-1.1 s-6.2-0.1-6.2-0.1l-4.3-0.4l-0.5-15.8L97.1,156.8z"></path> <path class="st1" d="M97,157.4c0,0,4.9,1,5.7,0.9s18-7.5,18.8-7.6c0.8-0.2,2,0,3,0.6c0.9,0.5,2.6,2,3.5,2.4 c0.9,0.4,10.3,4.7,11,5.3c0.8,0.6,8.9,8.7,9.5,9.4s3.3,3.8,3.3,4.4c0.1,0.5-1.6,1.7-2.5,1.4c-1-0.3-2.9-1-4.1-1.6 c-1.2-0.6-4.5-4.7-4.7-5.2c-0.2-0.5-1-3.4-1.3-3.9c-0.3-0.6-3.1-3.5-4-4.7c-0.6-0.8-3.9-3.6-3.9-3.6l-2-0.8c0,0,4.9,4.8,5.7,5.7 c0.8,0.9,3.4,4,3.7,4.6c0.3,0.6,1.5,3.7,1.8,4.4c0.3,0.7,1.7,2.1,0,3.6c-1.6,1.5-3.4,0.3-3.8,0.1c-0.5-0.2-1.6-2.6-2.3-3.4 s-1.7-3-2.2-3.5c-0.5-0.5-4.5-4.4-5-4.7c-0.5-0.3-0.8-1-2-1.1c-1.2-0.1-1.7,0.2-1.7,0.2s1.9,0.3,2.4,0.6c0.5,0.4,0.3,0.6-0.8,0.6 s-2.7,0.4-3.3,0.8c-0.6,0.4-1.4,1-1.4,1s-2.7-0.9-3.7-1.1c-1-0.2-2.3-0.3-2.5-0.2s1.4,0.6,2.4,1c1,0.4,5,1.3,5.7,1.8 c0.7,0.5,3.3,3.8,3.7,4.3c0.4,0.5,2.7,3.7,3.8,4.9c1.1,1.2,2.7,3,3.2,3.8s2.4,3.3,2,4.3c-0.3,1-2.4,1.9-3.9,1.1 c-1.5-0.7-5.1-6.6-5.7-7.3c-0.6-0.7-3.8-4.6-4.5-5.2c-0.6-0.5-2.5-2.1-3.4-2.3c-0.9-0.2-5.2-1.7-5.7-1.8s-1.1,0.2-1.1,0.2 s1.8,1.1,2.7,1.5c0.9,0.3,4.6,1.3,4.8,1.6c0.1,0.1-1.5-0.6-1.5-0.6s3.3,3.7,3.4,3.9c0.5,0.5,3.5,4,3.9,4.4c0.4,0.4,2.6,3,3.4,4 c0.8,0.9,0,3.3-1.9,2.6c-1.9-0.7-3.5-3.3-4-3.9c-0.5-0.7-1.9-2.3-3.1-3.1c-1.2-0.8-3.7-2.7-4.5-2.8c-0.7-0.1-3.6,0.9-4.3,0.8 s-9.3,0.9-10,0.8c-0.6-0.2-2.5-1.3-3-1.4s-5.9,0.2-6,0.2s-3.8-1.1-3.8-1.1l0.9-12.5l7-3L97,157.4z"></path> <path d="M121.4,153.6c-2.3,0.3-2.7,0.1-2.9-0.1s0.4-0.5,2.9-0.5c2.6,0,5.1,0.1,5.1,0.1l1.2,0.5 C127.6,153.6,123.5,153.4,121.4,153.6z"></path> <path class="st11" d="M150.2,173.9c0,0-2.3-2.5-2.2-3.3s0.6-1,1.1-1.2c0.9-0.2,4,3,4,3.2C153.1,173.2,151.4,174.5,150.2,173.9z"></path> <path class="st11" d="M136.4,169.1c0-0.8,1.1-1.9,2.4-1.1s2.8,2.7,2.7,3.3s-2.6,2.5-3.9,1.8C136.7,172.6,136.4,169.8,136.4,169.1z "></path> <path class="st11" d="M130.7,179.8c0.1-0.5,0.4-1.2,0.9-1.6c0.5-0.4,1.3-0.3,1.7-0.2c0.6,0.3,1.6,1.3,2.2,2.7s-2.5,3-3.2,2.3 S130.5,180.8,130.7,179.8z"></path> <path class="st11" d="M124.4,181.2c0,0-0.1-0.6,0.3-1c0.4-0.4,1.2-0.2,1.2-0.2s2.3,1.7,2.4,2.2s0.5,0.9-0.2,1.4 c-0.7,0.5-1.1,0.4-1.6,0.1C125.7,183.4,124.4,181.2,124.4,181.2z"></path> <path d="M112.1,43.3c0,0,5.8,20.5,4.9,33.8c-0.9,13.1-14.3,36.5-14.3,36.5L80.2,79.7l16.5-31.2L112.1,43.3z"></path> <path class="st1" d="M67.9,72.3c-0.2-0.1,2.6,3.6,9.1,7.5c5.4,3.2,9.2,3,9.2,3s-0.5-3.7-0.6-5.2c-0.6-10,6.2-15.9,8.2-16.1 s7.1,1.2,9,1.7c1.9,0.5,4-0.5,4.8-2.4c0.5-1.1-0.1-3.1,0.8-4.4c0.6-1,1.8-0.9,2.6-2c0.9-1.2-0.3-2.9-0.3-2.9s1-0.8,1-1.5 s0.1-1.5-0.2-2.8c-0.3-1.3,1-2.1,1.4-2.2c0.4-0.1,2.1,0.3,2.8,0.2c1.5-0.2,3.4-3.1,1.5-4.9c-1.4-1.4-4.1-6.7-3.7-8.5 c0.4-1.7,1.3-3.7,1.3-3.7s-8.1-14.2-7.6-14.2c0.5,0-34.1,14.1-34.1,14.1L67.9,72.3z"></path> <path d="M119.8,29.1c0,0,2.6-38.8-43.9-36.7C46.8-6.3,49.3,55.2,46.2,57.3s-5.4,4.9-9.4,10.4c-3.7,5.2-7.8,16.4-7.8,16.4 s13.2-7.5,16.7-9.8c3.5-2.4,4.6-13.5,6.9-12c2.4,1.4,7,7.6,9.5,8.7s12.4,2.7,16.5,0c8.4-5.5,12.4-14.2,12.8-20.3 c0.5-7.4,2.2-21,2.2-21s8.5-0.5,9.7-0.4c1.3,0.2,3.5-12.4,3.5-12.4s1.6,1.7,2.2,5.2c0.6,3.4,0.2,7.1,0.2,7.1L119.8,29.1z"></path> <circle class="st1" cx="89" cy="101.6" r="2.3"></circle> <circle class="st1" cx="92" cy="112.6" r="2.3"></circle> <circle class="st1" cx="92.9" cy="125.9" r="2.3"></circle> <circle class="st1" cx="90.3" cy="139.1" r="2.3"></circle> <path d="M39.2,167.1c0,0,36.6,6.5,39.8,7.2c3.2,0.6,12.4,1.2,12.4,1.2l5.4-1.2c0,0-6.9-2.4-1-11.8c4.6-7.4,8-5.3,8-5.3 s1.6-0.7-2.4-1.4c-4-0.7-12-0.6-13.3-0.7C86.7,154.9,39.2,167.1,39.2,167.1z"></path> <path d="M152.6,134.7c0,0,6.8,1.3,8.6,1.6c1.8,0.4,6.8,1.5,7.6,1.6c0.8,0.1,11.5-0.2,12.2,0c0.7,0.2,11,5.3,11,5.3v4 c0,0-1.8-0.2-2.6-0.5s-2.7-1.3-2.7-1.3s-1.9,1.6-3.7,1.5c-1.8-0.1-8.2-2.4-8.7-2.5s-3.3,0.9-5.3,0.8c-1.8,0-5.7-0.4-6-0.4 c-0.3,0.1,1.7,1.3,2.2,1.4c0.5,0.1,3.1,0.4,3.7,1.5c0.6,1.1,0.7,2.9-0.1,3.6c-0.7,0.7-2.8,0.9-4.3,0.8c-1.5-0.1-4.4-1.2-5.2-1.4 s-4.1-0.7-4.8-0.9c-0.7-0.2-3.2-0.4-3.2-0.4s-5.1,0.6-9.3-2.9c-2.3-1.9,0.9-12,0.9-12l7.9-0.7L152.6,134.7z"></path> <path class="st1" d="M151.5,135.4c0,0,10.9,2.2,12.2,2.5c1.3,0.3,4.8,1,6.6,1s9.6-0.6,10.4-0.2s12.3,6.1,12.3,6.1v2.1 c0,0-1.4,0.1-2.3,0c-0.8-0.1-4.3-1.7-4.3-1.7s-1.1,1-3.1,1.1c-2,0.1-9.4-2.6-9.4-2.6s-3.8,0.6-5.5,0.6s-5.8-0.1-6.3-0.3 c-0.5-0.2-3.3-1.5-3.8-1.6c-0.4-0.1-0.2,0.6,0.4,1.2c0.6,0.6,2.5,1.8,3.2,2.2c0.7,0.4,3.6,1.4,4.2,1.5c0.6,0.2,1.5-0.1,2.1,0.8 c0.6,0.9,0.8,2.1,0.3,2.7s-2.9,1-3.6,0.9c-0.8-0.1-3.6-0.7-4.7-1.2c-1.1-0.4-4.3-1.1-5.4-1.2c-1.1-0.1-1.5-0.2-2.8-0.4 c0,0-5.7,0.4-9.9-3.1c-4.3-3.4-3.9-9,0.9-10.4S151.5,135.4,151.5,135.4z"></path> <path d="M186.7,145.5c0.6-0.6,0.6-1.4,0.1-1.7c-0.6-0.4-1.7-0.8-2.7-1.2c-1-0.3-2.3-0.5-3.2-1.1c-1-0.5-3.5-2.1-3.8-2.1 c-0.3-0.1-0.6,0-0.6,0s4.2,3.3,5.1,3.5c1,0.2,3.1,0.8,3.3,0.8c0.3,0,1.4,0.4,1.4,0.8c0,0.4,0.2,0.4,0,0.5"></path> <path class="st11" d="M165.3,150.7c0,0-0.5-0.8,0-1.9c0.5-1.1,1.2-1.2,1.9-1.2s1.9,0.4,1.5,1.6c-0.4,1.2-1.1,2.1-2.3,1.8 C166,150.9,165.3,150.7,165.3,150.7z"></path> <path d="M199.6,160.2l-6.8-0.2c-0.8,0-1.5-0.7-1.5-1.5l5.5-173.2c0-0.8,0.7-1.5,1.5-1.5l6.8,0.2c0.8,0,1.5,0.7,1.5,1.5l-5.5,173.2 C201.1,159.6,200.4,160.2,199.6,160.2z"></path> <path d="M204.9-16c0,0,1.4-0.3,3.9,1.4c2.5,1.7,20.8,14.7,22.7,16.4c1.9,1.7,5.2,31,3.8,65.3c-1.5,34.6-5.8,49.4-8.1,53.9 c-2.3,4.5-24.4,37.5-24.4,37.5s0.9,0.8-2.1,1.3C197.6,160.1,204.9-16,204.9-16z"></path> <path d="M228.7,67.4c0,0,1-1,2.5-1.3s3,0.6,3,0.6s2.5,2.2,3.3,3.2c2.2,2.6,24,71.1,24,71.1s1.2,3.8,0.9,7.3 c-0.3,3.5-1.4,9.8-2,11.2c-0.6,1.4-2.2,7.3-8.6,8c-6.3,0.7-49,0.8-49,0.8l6.8-14.6l43.9,0.5c0,0,2,0,2.7-0.8 c0.7-0.8,0.7-0.8,0.7-0.8s-22.6-74.2-23.4-76s-1.6-3.8-2.5-4.5c-1-0.7-1.9-1.3-1.9-1.3L228.7,67.4z"></path> <path d="M212,143.7l-4.1,0.1c-0.5,0-1.1,0.6-1.1,1.1l-11.6,29.3c0,0.5,0.3,1.5,1.1,1.5l4.4-0.3c0.5,0,1-0.6,1.1-1.1l11.1-29.2 C213.2,144,212.5,143.7,212,143.7z"></path> <path d="M109,40.3c0,0-2.3,2.3-2.2,3.6c0,1.2,0.8,1.9,1.6,2c0.4,0,3.5-0.1,3.5-0.1l0.9-0.7c0,0-3.6,0.4-4.1,0.3 c-0.4-0.1-1.4-0.7-1.3-1.9C107.4,42.2,109,40.3,109,40.3z"></path> <path d="M111.6,50.2c0,0,0-1.8-2.5-0.2c-2.4,1.5-6,0.2-6,0.2s3.8,2.1,7.1,1.3C111.6,51.2,111.6,50.2,111.6,50.2z"></path> <path d="M106.9,54.8c0.1,0.3,1.2,0.4,1.8,0.5c1,0.1,1.9-0.6,1.9-0.6s-1.2,1.7-2.2,1.4C107.5,56,106.9,54.8,106.9,54.8z"></path> <path class="st12" d="M88,46.9c0,0-0.3,4.4,2.3,6.6s5.3,4.9,7,10.8c1.7,5.9-3,11.4-3,11.4l-1.7-5.3c0,0,2.8-3.4,1.7-5.3 c-1-1.9-8.4-7.8-10.1-9.8S80.6,48,80.6,48l7.4-6.8V46.9z"></path> <path class="st12" d="M81.6,60.7c0,0,6.8,8.1,7.5,11.1c0.7,3-2.3,11.7-2.3,11.7l3.6,5.1c0,0,5.1-6.7,4-12.9 c-1.1-6.2-5-9.5-6.3-11.8c-1.3-2.3-3.2-14.5-3.2-14.5L81.6,60.7z"></path> <path d="M98.6,31.6c0,0,3.9-1.4,7.9-1.2c2.7,0.2,0,4.5-1.5,4.5C103.5,34.9,100,32.7,98.6,31.6z"></path> <path class="st1" d="M100.5,31.9c0,0,2.8-0.8,4.4-0.7c0.9,0.1,2.4,0.8,1.7,1.9c-0.4,0.6-0.8,1.1-1.9,0.9 C103.6,33.8,100.9,32.3,100.5,31.9z"></path> <path d="M106.6,30.4c0,0,0.6,0,1.5-0.1c0.6-0.1,0.9-0.4,0.9-0.4s-0.3,0.8-1,1.1c-0.2,0.1-1,0.1-1,0.1L106.6,30.4z"></path> <circle cx="105.6" cy="32.2" r="1.7"></circle> <path d="M109.5,27.3c-0.7-0.1-4.8-1.2-6.3-1.3c-1.5-0.1-7.4,3.8-7.7,4c-0.3,0.2-1.1,1.2-1.1,1.2s7.9-3.4,8.7-3.3s5.2,1.4,6.2,1.4 C110.3,29.2,110.6,27.5,109.5,27.3z"></path> </g> </g> </svg> 