<svg xmlns="http://www.w3.org/2000/svg" xmlns:xlink="http://www.w3.org/1999/xlink" xml:space="preserve" id="Layer_1" x="0" y="0" style="enable-background:new 0 0 216 216" version="1.1" viewBox="0 0 216 216">
  <style>
    .st5{fill:#f3edea}
  </style>
  <path d="M4.7 63.8s.4-26.1 29.8-44.4c23.9-14.8 72.3-15 86.4-14.8 11.3.2 42.5 22.4 51.7 25.5s7.6-1.1 23.1-.6c17.3.6 22 50.1 6.7 73.1-10.6 15.9-16.1 42.2-10.7 53.7 5.4 11.5 13.4 39.5-3.8 48.9-21 11.5-67.4 8.4-85.3-3.1s-39.7 3.8-59.7 4.6S4.3 174.9 4.7 153c.4-21.9 14.9-36.7 14.2-50.3S4.7 91.1 4.7 63.8z" style="fill:#00bb9a"/>
  <path d="M176.3 154.3s1.9 2.8 1.9 4c0 1.2-.6 3.7-1.9 4.2-1.4.4-5.8 1.2-10.8 1.5s-98.7 0-98.7 0-4.2-.4-4.4-1.2 0-4.4 0-4.4l28.1-20.6s77.7-2.3 79.1-2.1c1.6.1 6.7 18.6 6.7 18.6z"/>
  <path d="M89.3 135.6 65.6 77.9s.6-1.5-3.2-2.9-44.7-21.7-44.7-21.7-4.1-.9-2.7 4.3c1.1 4.1 43.1 102.7 43.1 102.7s.8 5 4.4 2.5C66 160.2 91 140.2 91 140.2s-1.2-3.4-1.7-4.6z"/>
  <path d="m26.6 64.1 37.2 16.1 22.8 55.4-25.2 14.2z" style="fill:#fff"/>
  <path d="m66 124.8-20-2.7s-1.7 3.8 2 9.8c2 3.2 10.5 25.2 10.5 25.2l10.2-2.2s-5.9-18.4-6.4-21.7c-.5-3.4.8-7.7 3.7-8.4z" style="fill:#ff241e"/>
  <path d="M138.5 129.6s-12.7 6.7-14.8 7.7c-1.3.6-4.1 2.4-6.5 4-1.5.9-2.8 1.8-3.5 2.3-1.9 1.2-8.7 4.6-8.7 4.6s9.6-7.5 12.3-9.3c2.7-1.8 8.1-3.9 9.4-4.7 1.2-.8 2.1-2.9 4.6-2.5 2.4.4 7.2-2.1 7.2-2.1z"/>
  <path d="M143.1 123.5s-3.5-1.5-5.1-1-5.8 2-7.2 2.5-9.5 2.6-11.2 3.2c-1.7.6-4.2 1.2-4.9 2-.7.8-1.3 2.7-1.9 3.5s-4.2 5.6-4.5 6.4c-.2.5-1.6 4.2-1 6.3.2.8-.5.4-.5.4s-.6-4.2 1.9-9.1c.1-.2.4-.5.6-.8 1.1-1.3 2.9-3.2 3.3-3.9.5-.9 1.2-3.1 2.3-3.6 1-.5 5.6-2.2 7.7-2.8 2.2-.6 6.5-1.9 8.2-2.3s4.9-1.8 6.2-2.2c1.3-.4 3.1-.2 4.4.3 1.3.5 1.7 1.1 1.7 1.1z"/>
  <path d="M109.9 134.5c1-1 3.5-7.8 3.5-7.8s.6-1.7 3.1-2.2 8.3-3.1 10.5-3.5c2.2-.4 5.4-1.2 6.9-1.7 1.5-.4 3.2-1.6 3.9-1.7s1.7-.6 3.5.6c1.2.7-.7-.7-2.4-.3s-3.4 1.8-4.4 2c-1 .2-8.7 2.2-9.7 2.5-1 .3-6.8 2.4-8 2.8-1.2.5-2.4.8-2.8 2.2-.4 1.4-2.4 5.8-3 6.8-.6 1-1.7 2.6-1.7 2.6l-.9 1.4 1.5-3.7z"/>
  <path d="M109.1 146.1s.6 1.4.5 2.1-1.3 2.8-1.7 2.8-1.9-.3-2.3-1.1-.4-1.9-.4-1.9l3.9-1.9z" style="fill:#fff;stroke:#000;stroke-width:.7404;stroke-miterlimit:10"/>
  <defs>
    <path id="SVGID_1_" d="M4.7 63.8s.4-26.1 29.8-44.4c23.9-14.8 72.3-15 86.4-14.8 11.3.2 42.5 22.4 51.7 25.5s7.6-1.1 23.1-.6c17.3.6 22 50.1 6.7 73.1-10.6 15.9-16.1 42.2-10.7 53.7 5.4 11.5 13.4 39.5-3.8 48.9-21 11.5-67.4 8.4-85.3-3.1s-39.7 3.8-59.7 4.6S4.3 174.9 4.7 153c.4-21.9 14.9-36.7 14.2-50.3S4.7 91.1 4.7 63.8z"/>
  </defs>
  <clipPath id="SVGID_00000147199909891784404770000017522469528957663365_">
    <use xlink:href="#SVGID_1_" style="overflow:visible"/>
  </clipPath>
  <g style="clip-path:url(#SVGID_00000147199909891784404770000017522469528957663365_)">
    <path d="M220.1 114s-24.6 10-27.3 10c-2.7 0-36.9 1.9-36.9 1.9l14.4 14.9 49.8-1.3V114z"/>
    <path d="M220.1 115.5s-24.6 10-27.3 10c-2.7 0-36.9 1.2-36.9 1.2l14.4 14.9 49.8-1.3v-24.8z" class="st5"/>
    <path d="M220.1 132.5s-45.6-.7-47.9-.9-29.1-14.1-34.2-14.1c-4.2 0-7.1.4-9.4 1.5-2.3 1-14.2 5.5-15.4 6.9-1.2 1.4-6.2 8.9-7.7 11.4s-3.5 5.6-2.1 6.5c1.5.8 2.9 0 2.9 0l-1.2 5.2s.8 3.1 4.4 3.1 15.4-6 17.5-6.7c2.1-.6 7.9-2.9 7.9-2.9s4 1.7 5.2 1.5 12.5 10.4 15.4 10.8c2.9.4 12.6.1 16.9.8 7.9 1.5 22.5 9 25.6 10 3.1 1 20.9 2.9 22.1 2.9 1.1 0 .2-30.6 0-35.4v-.6z"/>
    <path d="M171.6 133.1c-.6-.3-30.3-14-31.2-14.3s-6.2-.7-9.2.1-15.2 5.9-16.9 7.3-11 14.8-10.8 15.9-.5 1.6 1 1.7c1.4.2 2.4-.7 2.4-.7s.2 2.3-.2 3.7c-.2.9-1.1 1.2-1.2 1.4-.3.4.9 3.4 3.3 3.5s9.2-3 10.6-3.5c1.5-.6 15.8-6.2 15.8-6.2s3.1 1.5 3.9 1.6 1.7 0 1.7 0 10.9 9.2 13.8 10.3c2.9 1.1 15.1.3 16.7.4 4.2.5 20.7 8 27 10.1 3.3 1.1 30.4 3 30.4 3V134c-22.1-.3-56-.4-57.1-.9z" class="st5"/>
  </g>
  <path d="M132.3 131.8s-9.7 5.1-11.3 5.9c-1 .5-3.1 1.8-5 3-1.1.7-2.1 1.4-2.7 1.8-1.4 1-6.7 3.5-6.7 3.5s7.3-5.7 9.4-7.1c2.1-1.4 6.2-2.9 7.2-3.6s1.6-2.2 3.5-1.9 5.6-1.6 5.6-1.6z"/>
  <path d="M135.8 127.1s-2.7-1.1-3.9-.8c-1.3.3-4.4 1.5-5.5 1.9-1.1.4-7.3 2-8.5 2.4-1.3.5-3.2.9-3.8 1.5-.5.6-1 2.1-1.4 2.7-.4.6-3.2 4.3-3.4 4.9-.1.4-1.3 3.2-.8 4.8.2.6-.4.3-.4.3s-.5-3.2 1.4-6.9c.1-.2.3-.4.5-.6.8-1 2.2-2.5 2.5-3 .4-.7 1-2.4 1.8-2.8.8-.4 4.2-1.7 5.9-2.1s5-1.5 6.3-1.8c1.3-.3 3.8-1.4 4.8-1.7 1-.3 2.4-.1 3.4.2.8.5 1.1 1 1.1 1z"/>
  <path d="M110.5 135.5c.7-.8 2.7-6 2.7-6s.4-1.3 2.3-1.7 6.4-2.3 8-2.7c1.6-.3 4.1-1 5.3-1.3 1.1-.3 2.4-1.2 3-1.3s1.3-.5 2.7.4c.9.6-.5-.5-1.9-.2s-2.6 1.4-3.4 1.5c-.8.2-6.7 1.7-7.4 1.9-.7.2-5.2 1.8-6.1 2.2-.9.4-1.9.6-2.2 1.7s-1.8 4.4-2.3 5.2c-.5.8-1.3 2-1.3 2l-.7 1.1 1.3-2.8z"/>
</svg>
