<svg xmlns="http://www.w3.org/2000/svg" xml:space="preserve" id="Layer_1" x="0" y="0" style="enable-background:new 0 0 216 216" version="1.1" viewBox="0 0 216 216">
  <style>
    .st6{fill:#afdafd}.st7{fill:#fdfdfd}.st8{fill:#ff3e26;stroke:#000;stroke-width:.2549;stroke-miterlimit:10}
  </style>
  <g id="XCdBOo_00000057139342112865238870000017651687775524278435_">
    <path d="M209.9 74v29c-.6 1.9-.3 3.9-.4 5.8-.4 6.2-.8 12.5-1.3 18.7-.4 4.1-.6 8.2-1.1 12.2-.7 5.9-1.4 11.9-2.2 17.8-.9 6.4-2 12.7-3.4 18.9-1.2 5.5-3.4 10.3-8.5 13.4-3.8 2.3-7.6 4.7-11.9 6.3.2-.4.1-.8 0-1.1l-2.4-9.6c-.5-1.8-.9-3.7-2.2-5-1.9-1.9-.7-4.5-1.5-6.6 0-.1.2-.3.3-.4.5-.6.7-1.2.6-2-.1-.4.1-.7.4-1 3.8-3.2 6.1-7.3 7.7-11.9 2.3-6.6 2.6-13.4 2.7-20.3.1-8.6-.4-17.2.4-25.8.2-1.8.3-3.5 1.3-5 2-3 2.7-6.3 2.2-9.9-.1-.4-.2-.9.1-1.2 1.2-2.2.8-4.3 0-6.5.1 0 .1-.1.2-.2.8.8 1.9 1.2 2.2 2.6.2-1.3.2-2.3-.5-3.3-1.5-2.2-2.4-4.6-3.7-6.9-2-3.9-3-8.1-3.9-12.3-.7-3.1-.8-6.3-1.7-9.5-1.2-4.6-3.6-8.4-7.6-11-3.9-2.6-8-4.7-12.7-5.4-2.5-.4-4.8-.9-5.6-3.9-.4-1.6-2.8-2.3-4.4-1.9-.5.1-.9.3-1 .8-.4 1.8-1.8 2.9-3.1 3.9-.8.7-1.2 1.4-1.3 2.5 0 1 .1 2.3-.6 2.9-1.6 1.5-2.9 3.3-4.5 4.8-2.1 1.9-2.5 4.4-2.3 7-2.3 1.7-4.7 3.4-7 5.2-1.4 1.1-1.3 2.3 0 3.5.5.4 1.4.6 1.5 1.2.2.8-.9 1.1-1.1 1.7-.4 1.6-1.3 3.4-.8 4.7.6 1.6.5 2.8 0 4.3-.7 2 1 3.9 3.3 4.5 2 .5 4.1.8 6 1.5.6.2 1.2.4.9 1.3-.8 2.3-.5 4.5.5 6.7.5 1.2.7 2.4.8 3.7.1 3.4-.5 6.6-1.9 9.8-.3.7-.7 1.2-1.4 1.6-3.4 1.9-5 4.8-5.2 8.6 0 .3.1.7-.4.8-2.6.8-4.9 2.6-7.9 2.3-1-.1-2 .2-2.9.6-2 1-4 1.9-5.9 2.9-1.8.9-2.1.8-3-1-1.7-3.3-3.2-6.7-4.8-10-2.2-4.5-4.2-9.2-6.3-13.8-.5-1.4-1.3-2.7-1.3-4.2v-.1h-.1v-.1c-.1-1.3-.4-2.6-.9-3.8-.3-1-.5-2-1.3-2.7 0-.5-.3-.9-.6-1.3-1.5-2.8-3.4-5.3-6.7-6.2-4.1-1.1-8.3-1.6-12.5-1.9-3.3-.2-6.3-.9-8.9-3.2-1.3-1.2-2.8-2.2-4.6-2.5-2.3-.4-4.4-1.4-6.2-3.1-.9-.8-2-1.1-3.2-1-.7.1-1 .4-.7 1.1.7 1.5 1.5 3 2.8 4.2 2.2 2.1 5.6 2.3 7.7 4.7-.2.6.6.7.5 1.2-.9.3-1.9.6-2.9.9-1.2.4-1.7 1.1-1.7 2.3.1 1.7.2 3.5.1 5.2-.1 1.4-.4 2.7.9 3.7 1 .8 1.8 2 3.2 2.5.8.3 1.7.2 1.4 1.5-.1.4.5.5.8.6 1.7.7 3.2.2 4.7-.5 2-.9 3.7-2.2 5.9-2.6 1-.4 2.2-.1 3.2-.4.7.6 1.4.1 2 0 .9-.2 2-.3 2.6-1.3 1.5-.1 1.5-.1 1.8 1.7.6 3.6.8 7.2 1.1 10.9.3 3.6.3 7.3 1.2 10.8l6.6 25.8c.4 1.5 1.2 2.3 2.4 2.8.9.4 1.9.6 3 .6 5.6 0 11.1-.3 16.6-.6.9 0 1.3.3 1.6 1.1 2.1 5 4.3 10 6.9 14.8.5.9-.3 2.6-1.4 2.5-1.5-.1-1.4.7-1.1 1.6.2.6.3 1.2.8 1.7.3.3.3.6.1 1-2.4 4.8-4.2 9.7-5.1 15-1.5 8.4-3.5 16.8-5.2 25.2-.1.6-.5 1.2 0 1.8-.5 0-.9.1-1.4 0-6.6-1-13.3-2.1-19.8-3.7-4.1-1-8.1-2.2-12.2-3.1-10.4-2.2-20.9-4.1-31.2-6.9-6.5-1.8-13-3.8-19-7.1-3.6-1.9-6.8-4.3-9.1-7.7-3.3-4.9-5.4-10.3-7.2-15.9-2.9-8.8-4.8-17.7-6.5-26.8C10.1 129.8 9 121 8 112.2c-.6-5-1-10-1.3-15-.4-5.9-.6-11.7-.8-17.6.1-3.6.2-7.5.2-11.4 0-5.8 1.4-11.3 3.8-16.5 4.3-9.4 11.1-16.8 19-23.4 6.5-5.5 13.6-10 21-14.2C58.6 9.2 68 7.3 77.9 8c6.4.5 12.6 1.7 18.8 3.1 9.3 2.1 18.4 4.8 27.9 5.7 4.9.5 9.8.4 14.7.1 4.9-.3 9.8-.8 14.7-.9 4.7-.2 9.5.2 14.2.5 2.4.2 4.9.5 7.2 1.3 5.8 2.1 10.3 6 14 10.8 8.5 10.7 13.5 23.1 17.6 35.9 1.1 3.2 2 6.4 2.9 9.5zM53.4 64.7v-1.3c.1-.7-.2-.9-.9-.9H38.3c-.6 0-.9.1-.9.8v14.4c0 .7.2.9.9.9h14.2c.7 0 .9-.2.9-.9v-7.8c0-.6.1-1.1.6-1.5 1.7-1.6 3.4-3.2 5.2-4.9-.8-.6-1.6-1.1-2.3-1.7-.4-.4-.7-.3-1 .1-.7.8-1.5 1.7-2.5 2.8zm.2 21.6c-.6-.6.4-1.8-1.1-1.8-4.7.1-9.5 0-14.2 0-.7 0-.9.2-.9.9v14.1c0 .8.2 1 1 1h14.1c.9 0 .9-.3.9-1 0-1.8.1-3.7 0-5.5-.2-2.3.2-4.1 2.3-5.4.7-.4 1.2-1.1 1.8-1.6.6-.6 1.8-1.1 1.7-1.8-.1-.6-1.3-1-2-1.6-.5-.5-.8-.3-1.2.2-.8.7-1.6 1.6-2.4 2.5zm-.2 28.2v-7c0-.8-.2-1-1-1H38.3c-.7 0-.9.1-.9.9v14.1c0 .8.2 1 1 1h14.1c.7 0 .9-.2.9-.9v-7.1z" class="st6"/>
    <path d="M190.7 89.9c.8 2.2 1.2 4.3 0 6.5-.2.4-.1.8-.1 1.2.4 3.6-.2 6.9-2.2 9.9-1.1 1.6-1.2 3.3-1.3 5-.8 8.6-.2 17.2-.4 25.8-.1 6.9-.4 13.7-2.7 20.3-1.6 4.6-3.9 8.7-7.7 11.9-.3.3-.5.5-.4 1 .1.8-.1 1.4-.6 2-.1.1-.3.3-.3.4.8 2.1-.3 4.7 1.5 6.6 1.3 1.4 1.8 3.2 2.2 5l2.4 9.6c.1.4.2.7 0 1.1-.1 0-.2.1-.4.1-15.1 6.5-30.7 11.5-46.9 14.3-.3 0-.7-.1-.8.4h-.8c-1.9-.2-3.7-.3-5.6 0h-2.5l-.2-.2c-2 .2-3.8-.6-5.8-.6-.4-.6-.1-1.2 0-1.8 1.8-8.4 3.7-16.8 5.2-25.2 1-5.3 2.7-10.3 5.1-15 .2-.4.3-.7-.1-1-.4-.5-.6-1.1-.8-1.7-.3-1-.4-1.7 1.1-1.6 1 0 1.9-1.6 1.4-2.5-2.6-4.8-4.8-9.8-6.9-14.8-.3-.8-.7-1.1-1.6-1.1-5.5.3-11.1.6-16.6.6-1 0-2-.2-3-.6-1.3-.6-2.1-1.4-2.4-2.8-2.1-8.6-4.4-17.2-6.6-25.8-.9-3.5-.9-7.2-1.2-10.8-.3-3.6-.5-7.3-1.1-10.9-.1-2.2-.1-2.2-1.6-2.1 0-.4.7-.2.6-.7-1.9-.4-3.6-1.3-4.9-2.8l.2-.2c1.6 1.1 2.9 2.6 5.1 2.6 0-1.7.9-3.1 1.7-4.6l.2.2c-.7 1.8-1.4 3.6-1 5.5.7 3.1.8 6.3 1.2 9.4.3 3.4.3 6.8 1 10.1 2 10.2 4.7 20.2 7.9 30 .4 1.2 1.2 1.8 2.3 2 .7.1 1.4.2 2.1.2 5.6.1 11.3-.5 16.9-.7 2.1-.1 4.3-.2 6.5-.3 0-.2-.1-.4-.1-.6-1.8-4-3.5-8.1-5.3-12.1-.7-1.6-1.6-3.1-2.8-4.4-.5-.5-1-1.2-1.9-1-1.6.4-2.5-.4-3.2-1.8-3.8-7.5-7.3-15-10.7-22.7-.2-.4-.6-.9-.2-1.4 2.1 4.6 4 9.3 6.3 13.8 1.6 3.3 3.2 6.7 4.8 10 .9 1.8 1.3 1.9 3 1 2-1 4-1.9 5.9-2.9.9-.5 1.9-.8 2.9-.6 3 .4 5.3-1.4 7.9-2.3.5-.1.3-.5.4-.8.1-3.8 1.8-6.7 5.2-8.6.7-.4 1.1-.9 1.4-1.6 1.4-3.1 2-6.4 1.9-9.8 0-1.3-.2-2.5-.8-3.7-1-2.1-1.3-4.4-.5-6.7.3-.9-.3-1.1-.9-1.3-1.9-.7-4-1.1-6-1.5-2.3-.5-4-2.5-3.3-4.5.5-1.6.6-2.7 0-4.3-.5-1.3.4-3.2.8-4.7.2-.7 1.3-.9 1.1-1.7-.2-.6-1-.8-1.5-1.2-1.4-1.2-1.4-2.4 0-3.5 2.3-1.8 4.7-3.4 7-5.2-.1.7-.7 1.1-1.2 1.5-1.6 1.2-3.2 2.4-4.9 3.6-.5.4-1.1.8-1.2 1.6-.2.9.4 1.6 1.1 1.5-.4.7.3.7.5.8 1.3.6 1 1.4.3 2.2-.1.1-.3.2-.3.3 1.8.4 2.7 1.7 4 3.1-1-.2-1.6-.4-2.3-.5-1.4-.2-2.6.4-2.8 1.5-.2.9.1 1.3 1.1 1.1.5-.1 1-.3 1.8-.1-1.2.3-2.4.5-1.9 2.1 0 .1-.2.3-.2.4-1.3 2.5-.4 4.7 2.3 5.4 1.4.4 2.8.7 4.2 1.1 1.8.5 3.8.7 5 2.2 2.5 2.8 4.5 6 5 9.9.2 1.3.2 2.6.3 4.1 1.4-4 3.4-7.6 4.2-11.5.7-3.6 2-6.8 4.1-9.7 1-1.4.6-2.4-.1-3.7-.1.3-.2.5-.3.6-1.5 4.4-4.2 6.9-9.1 6.9l-10.5.3c0-.1 0-.3-.1-.4 3.9-.1 7.8-.6 11.8-.9 3.8-.3 5.9-2.6 7.4-5.7.1-.2.1-.5.3-.7.7-.7.3-1.2-.3-1.6-2.2-1.9-3.5-4.2-3.9-7.1 0-.3 0-.7-.4-.8-1.9-.7-3.1-2.3-4.5-3.6-.4-.3-.6-.8-1.3-.7-.9.1-1.5-1.1-2.6-.1-1.4 1.3-1-1.4-2.1-1.1 0 0-.1-.1-.1-.2.7-.5.5-1.6 1.6-2 0 .7-.7 1.1-.5 1.8 1.1-.3 2 .6 3.1.6-.2-.8-.8-1.3-1-2-.1-.7-.2-1.6-.6-2-.6-.5-1.3.3-2 .4-.5.1-1 .2-1.2-.4-.2-.5 0-.9.4-1.2.5-.4 1.2-.7 1.9-.6.6.1.8-.1.7-.8-.1-1.9.1-3.7.8-5.5.1-.3.2-.6.1-1 .2 0 .2 0 .1-.2 0 .1-.1.1-.1.2-1.7 1.1-2.6 2.9-4 4.3-1.5 1.4-2.1 3.1-2 5.1 0 .5.1 1.1-.6 1.4-.2-2.6.2-5 2.3-7 1.6-1.5 2.9-3.3 4.5-4.8.7-.6.6-1.9.6-2.9 0-1.1.4-1.8 1.3-2.5 1.3-1 2.7-2.1 3.1-3.9.1-.5.6-.7 1-.8 1.7-.4 4 .3 4.4 1.9.9 3 3.1 3.5 5.6 3.9 4.7.7 8.9 2.7 12.7 5.4 3.9 2.7 6.4 6.5 7.6 11 .8 3.1.9 6.4 1.7 9.5 1 4.2 1.9 8.4 3.9 12.3 1.2 2.3 2.1 4.8 3.7 6.9.7 1 .7 2 .5 3.3-.2-1.4-1.4-1.8-2.2-2.6 0-.1-.1-.2-.2-.1-.1.4 0 .6 0 .7zm-67.1 55.4c1.2 2.7 2.3 5.3 3.4 7.8 1.7 3.8 3.5 7.7 5.8 11.2.3.5.7.9 1.4.8.8-.1 1-.7 1.1-1.4.1-.6 0-1.3-.1-1.9-1.1-5.7-3.5-11-5.6-16.3-.1-.4-.3-.6-.7-.5-1.7.1-3.5 0-5.3.3zm29.7-81.6c-.4-3.4-1.2-6.8-2-10.2-.2-.8-.9-1.5-1.6-2-2.2 5.1 1.1 8.5 3.6 12.2z"/>
    <path d="M126.7 210.9c1.9-.3 3.7-.2 5.6 0h-5.6z" class="st6"/>
    <path d="M104.7 100c-.4.5 0 1 .2 1.4 3.3 7.7 6.9 15.2 10.7 22.7.7 1.4 1.5 2.2 3.2 1.8.9-.2 1.4.4 1.9 1 1.2 1.3 2.1 2.8 2.8 4.4 1.8 4 3.5 8 5.3 12.1.1.1.1.3.1.6-2.2.1-4.3.2-6.5.3-5.6.2-11.2.8-16.9.7-.7 0-1.4 0-2.1-.2-1.1-.2-2-.8-2.3-2-3.2-9.9-6-19.8-7.9-30-.6-3.3-.6-6.7-1-10.1-.3-3.2-.4-6.3-1.2-9.4-.4-1.9.3-3.8 1-5.5.1-.1.2-.2.1-.3 0 0-.2.1-.3.1-.8 1.5-1.8 2.9-1.7 4.6-2.2 0-3.6-1.5-5.1-2.6-2-1.7-4.2-2.4-6.8-2.3.1-.6.6-1 .5-1.7-.8 1.1-1.5 2.1-3 2.1-.4 0-1 .4-.3 1 .6.6 1 1.3 2.2.9.8-.3 1.8.7 1.6 1.2-.3.6-.7 1-1.4 1.2-2.6.8-3.7.2-4.8-2.3-.3-.7-.4-1.4-.7-2-.1-.2.1-.7-.7-.6 1.2 2.3.1 5.3 3.1 7.1-.3-.7-.1-.9.4-1.3.8-.7 1.8-.4 2.6-.5 1.7-.3 2.2-1.4 1.4-2.8-.3-.4-.7-1.1-.4-1.6.3-.4.9-.2 1.4-.2 1.8.2 3.3 1.1 4.9 2 1.3 1.6 2.9 2.5 4.9 2.8.1.5-.6.3-.6.7-1.5.4-3 .9-4.6 1.3-1.1.3-2.2 0-3.2.4-1.2-.4-2.3.1-3.2.7-1.6 1-3.1 1.3-4.6 0-.3-.2-.6-.4-1-.5-1.9-.6-2.7-2-3-3.9-.3-1.5-.4-3-1.1-4.4-.6 3.1-.4 6 2.5 8.1-1.2.9-2 .9-3 0l-2.4-2.1c-.3-.3-.7-.6-.6-1 .2-2.4-.3-4.8-.1-7.2.1-1 .5-1.7 1.6-2 1.1-.3 2.1-.7 3.3-1.1-.5-.5-.9-1-1.4-1.5-.9-1.8-2.5-2.6-4.3-3.3-2.5-.9-4.3-2.6-5.2-5.1-.3-.9 0-1.2.9-1.1.8.1 1.5.6 2.1 1.1 1.5 1.1 2.8 2.4 4.7 2.7 2.4.4 4.4 1.6 6.3 3 .8.6 1.8 1.2 2.6 1.8.8.6 1.7.8 2.7.9 3.8.4 7.6.8 11.5 1.3 3.3.4 6.5 1.1 8.8 3.9.7.9 1.3 2 2.2 2.7.2.4.5.8.6 1.3.7 2.2 1.2 4.4 2.2 6.5v.1h.1v.1c-.3 1.3.5 2.6 1 4zM68.5 85.6c.1.1.1.2.2.3.8-.6 1.7-1.1 2.5-1.7-1.1.1-1.9.7-2.7 1.4z" class="st7"/>
    <path d="M53.4 64.7c1-1.1 1.8-1.9 2.5-2.8.3-.4.6-.5 1-.1.7.6 1.5 1.1 2.3 1.7-1.8 1.7-3.5 3.3-5.2 4.9-.5.4-.6.9-.6 1.5v7.8c0 .7-.2.9-.9.9H38.3c-.7 0-.9-.2-.9-.9V63.3c0-.7.2-.8.9-.8h14.2c.7 0 1 .2.9.9v1.3zm-.5 4.7c-2.4 2.2-4.6 4.2-6.7 6.3-.5.5-.8.4-1.3 0-1.3-1.1-2.6-2.1-4-3.1-2-1.5-2-1.5-.1-3.1.4-.3.6-.4 1 0 1 1.1 2 2.3 3.1 3.4.4.4.7.7 1.2.1l6.6-7.5c.5-.6.2-1.5.1-2.2-.1-.6-.8-.3-1.3-.3H38.9c-.6 0-1 0-1 .8v13.4c0 .7.2.9.9.9h13.4c.5 0 .8-.1.8-.7-.1-2.6-.1-5.1-.1-8zM53.6 86.3c.8-.9 1.6-1.7 2.3-2.6.4-.5.7-.7 1.2-.2.7.6 1.9 1 2 1.6.1.7-1.1 1.2-1.7 1.8-.5.6-1.1 1.2-1.8 1.6-2 1.3-2.5 3.1-2.3 5.4.2 1.8 0 3.6 0 5.5 0 .7-.1 1-.9 1H38.3c-.8 0-1-.2-1-1V85.3c0-.7.2-.9.9-.9 4.7 0 9.5.1 14.2 0 1.7 0 .7 1.3 1.2 1.9zm-.7 4.9c-2.3 2.2-4.4 4.1-6.4 6-.6.6-1 .6-1.6 0-1.3-1.2-2.8-2.2-4.2-3.3-1.5-1.1-1.5-1.1-.1-2.5.6-.7 1.1-.9 1.7 0 .4.6 1 1.1 1.5 1.6.6.7 1.3 1.9 1.9 1.9.8 0 1.3-1.3 2-1.9l.2-.2c1.5-1.7 3.1-3.5 4.7-5.2.7-.7.6-1.6.4-2.4-.2-.7-1-.3-1.5-.3H39.2c-.7 0-1.1.1-1.1.9V99c0 .6.1.8.7.8h13.6c.4 0 .7 0 .6-.5-.1-2.5-.1-5.1-.1-8.1z" class="st8"/>
    <path d="M53.4 114.5v7.1c0 .7-.2.9-.9.9H38.4c-.8 0-1-.2-1-1v-14.1c0-.8.3-.9.9-.9h14.1c.8 0 1 .1 1 1v7zm-7.9-7.4h-6.6c-.7 0-1 .2-1 1v13c0 .7.1 1.1 1 1h13.2c.7 0 .8-.2.8-.9V108c0-.7-.2-.9-.9-.9h-6.5zM100.5 87.7c-.9-.7-1.5-1.8-2.2-2.7-2.3-2.8-5.5-3.5-8.8-3.9-3.8-.4-7.6-.9-11.5-1.3-1-.1-1.9-.4-2.7-.9-.9-.6-1.8-1.1-2.6-1.8-1.9-1.4-3.9-2.6-6.3-3-1.9-.3-3.2-1.6-4.7-2.7-.7-.5-1.3-1-2.1-1.1-.9-.1-1.2.2-.9 1.1 1 2.5 2.7 4.3 5.2 5.1 1.8.6 3.4 1.4 4.3 3.3-2-2.4-5.4-2.6-7.7-4.7-1.3-1.2-2.1-2.6-2.8-4.2-.3-.7 0-1 .7-1.1 1.2-.1 2.3.1 3.2 1 1.7 1.6 3.8 2.6 6.2 3.1 1.8.3 3.3 1.4 4.6 2.5 2.5 2.3 5.6 3 8.9 3.2 4.2.3 8.4.8 12.5 1.9 3.3.9 5.2 3.4 6.7 6.2zM68.2 79.8c.4.5.8.9 1.4 1.5-1.2.4-2.2.8-3.3 1.1-1.1.3-1.5 1-1.6 2-.2 2.4.3 4.8.1 7.2 0 .5.3.8.6 1l2.4 2.1c1 .9 1.8.9 3 0-2.9-2-3.1-5-2.5-8.1.6 1.4.8 2.9 1.1 4.4.4 1.9 1.1 3.3 3 3.9.4.1.7.3 1 .5 1.6 1.2 3.1 1 4.6 0 .9-.6 2-1.1 3.2-.7-2.2.4-3.9 1.7-5.9 2.6-1.5.7-3.1 1.2-4.7.5-.3-.1-.9-.3-.8-.6.2-1.3-.7-1.2-1.4-1.5-1.3-.5-2.1-1.6-3.2-2.5-1.3-1-1-2.3-.9-3.7.1-1.7 0-3.5-.1-5.2-.1-1.3.5-2 1.7-2.3 1-.3 1.9-.6 2.9-.9-.1-.6-.8-.7-.6-1.3zM74.9 97c-1-.6-1.8-1.1-2.7-1.5-.3-.2-.6-.6-1-.3-.4.5-.7 1.1-.7 1.7.1.5.5.7.9.7 1.2.2 2.3.1 3.5-.6zM103.3 95.6c-1-2.1-1.5-4.3-2.2-6.5.9.7 1 1.8 1.3 2.7.4 1.3.8 2.5.9 3.8zM84.5 94.3c1.5-.4 3-.9 4.6-1.3-.6.9-1.7 1-2.6 1.3-.7.2-1.4.7-2 0zM103.4 95.8s-.1-.1 0 0c-.1-.1 0 0 0 0z"/>
    <path d="M134 68.1c-.7.1-1.3-.7-1.1-1.5.2-.7.7-1.2 1.2-1.6 1.6-1.2 3.3-2.3 4.9-3.6.5-.4 1.1-.7 1.2-1.5.7-.2.6-.9.6-1.4-.1-2 .5-3.7 2-5.1 1.4-1.3 2.3-3.2 4-4.3.1.3 0 .7-.1 1-.8 1.7-1 3.6-.8 5.5 0 .6-.1.8-.7.8-.7-.1-1.3.2-1.9.6-.4.3-.6.7-.4 1.2.2.6.7.5 1.2.4.7-.2 1.4-.9 2-.4.4.4.5 1.3.6 2 .2.7.7 1.2 1 2-1.1.1-2-.9-3.1-.6-.2-.7.5-1 .5-1.8-1 .3-.9 1.5-1.6 2 0 .1.1.2.1.2 1.1-.3.6 2.5 2.1 1.1 1.1-1 1.8.2 2.6.1.6-.1.9.4 1.3.7 1.4 1.3 2.6 2.9 4.5 3.6.4.2.4.5.4.8.4 2.9 1.7 5.2 3.9 7.1.5.4.9.9.3 1.6-.2.2-.2.5-.3.7-1.5 3.2-3.5 5.4-7.4 5.7-3.9.3-7.8.8-11.8.9-.3-.1-.6-.1-1 .2.3.1.4.2.5.3h.5c3.5-.1 7-.3 10.5-.3 4.9-.1 7.7-2.5 9.1-6.9l.3-.6c.7 1.3 1.1 2.4.1 3.7-2.1 2.9-3.4 6.2-4.1 9.7-.7 4-2.7 7.5-4.2 11.5-.1-1.5-.2-2.8-.3-4.1-.5-3.9-2.5-7-5-9.9-1.3-1.4-3.3-1.7-5-2.2-1.4-.4-2.8-.7-4.2-1.1-2.7-.8-3.6-3-2.3-5.4.1-.1.3-.3.2-.4-.5-1.6.7-1.8 1.9-2.1-.7-.3-1.2 0-1.8.1-.9.2-1.3-.2-1.1-1.1.2-1.1 1.4-1.8 2.8-1.5.7.1 1.3.3 2.3.5-1.3-1.5-2.2-2.7-4-3.1 0-.1.2-.2.3-.3.8-.8 1.1-1.6-.3-2.2-.1-.3-.8-.4-.4-1 1.3.3 2.4 1 3.5 1.6.8.5 1.5.3 2-.7-1 .8-1.7.3-2.4-.3-.9-.8-2-.9-3.1-.6zM123.6 145.3c1.9-.3 3.6-.2 5.3-.3.4 0 .6.2.7.5 2.2 5.4 4.5 10.6 5.6 16.3.1.6.2 1.3.1 1.9-.1.7-.3 1.2-1.1 1.4-.7.1-1.1-.3-1.4-.8-2.3-3.5-4.1-7.4-5.8-11.2-1.2-2.5-2.2-5.1-3.4-7.8z" class="st7"/>
    <path d="M153.3 63.7c-2.6-3.7-5.9-7.1-3.5-12.2.7.5 1.4 1.2 1.6 2 .8 3.3 1.6 6.7 1.9 10.2z" class="st7"/>
    <path d="M139.2 84.9c-.2 0-.3.1-.5 0-.2 0-.3-.1-.5-.3.4-.3.7-.2 1-.2v.5z" class="st6"/>
    <path d="M146.8 49.3c0-.1.1-.1.1-.2.1.2.1.2-.1.2z" class="st7"/>
    <path d="M190.7 89.9c0-.1-.1-.3 0-.3.1-.1.2 0 .2.1-.1.1-.1.2-.2.2z" class="st6"/>
    <path d="M84.7 89.6c-1.6-.9-3.1-1.8-4.9-2-.5-.1-1.2-.2-1.4.2-.3.5.1 1.2.4 1.6.9 1.4.3 2.5-1.4 2.8-.9.2-1.8-.2-2.6.5-.4.4-.7.6-.4 1.3-3-1.8-1.9-4.8-3.1-7.1.8-.1.6.4.7.6.2.7.4 1.4.7 2 1.1 2.5 2.2 3.1 4.8 2.3.6-.2 1.1-.7 1.4-1.2.3-.5-.8-1.5-1.6-1.2-1.1.4-1.5-.3-2.2-.9-.6-.6-.1-1 .3-1 1.5 0 2.2-1 3-2.1.2.7-.4 1.1-.5 1.7 2.6-.2 4.9.6 6.8 2.3.1 0 0 .1 0 .2zm-7.4-.6c.1-.3.8.5.8-.3 0-.6-.5-1-1.1-.9-.4.1-1.2 0-1.2.6.1.6.8.8 1.5.6zM68.5 85.6c.8-.6 1.6-1.2 2.7-1.4-.8.6-1.7 1.1-2.5 1.7-.1-.2-.2-.3-.2-.3zM91.7 87.4c.1-.1.2-.2.3-.1.2.1.1.2-.1.3 0-.1-.1-.2-.2-.2z"/>
    <path d="M52.9 69.4v8c0 .6-.2.7-.8.7H38.7c-.6 0-.9-.2-.9-.9V63.8c0-.9.4-.8 1-.8h12.6c.4 0 1.2-.3 1.3.3.1.7.4 1.6-.1 2.2L46 73c-.5.6-.8.3-1.2-.1-1-1.1-2.1-2.2-3.1-3.4-.4-.4-.6-.4-1 0-1.9 1.6-1.9 1.6.1 3.1 1.3 1 2.7 2.1 4 3.1.5.4.8.5 1.3 0 2.2-2.1 4.4-4.1 6.8-6.3zM52.9 91.2v8.3c0 .5-.3.5-.6.5H38.7c-.7 0-.7-.3-.7-.8V86c0-.9.4-.9 1.1-.9h12.3c.5 0 1.4-.4 1.5.3.2.8.3 1.6-.4 2.4-1.6 1.7-3.1 3.5-4.7 5.2l-.2.2c-.7.7-1.1 2-2 1.9-.7 0-1.3-1.2-1.9-1.9-.5-.5-1.1-1-1.5-1.6-.6-1-1.1-.7-1.7 0-1.3 1.4-1.4 1.3.1 2.5 1.4 1.1 2.9 2.1 4.2 3.3.7.6 1 .6 1.6 0 2.1-2.2 4.2-4 6.5-6.2zM45.5 107.1H52c.7 0 .9.2.9.9v13.2c0 .6-.1.9-.8.9H38.9c-.8 0-1-.3-1-1v-13c0-.8.3-1 1-1h6.6zM74.9 97c-1.2.7-2.3.8-3.4.6-.4-.1-.9-.2-.9-.7-.1-.7.2-1.2.7-1.7.4-.4.7.1 1 .3.8.4 1.6 1 2.6 1.5z" class="st7"/>
    <path d="M134 68.1c1.1-.3 2.2-.2 3 .7.7.7 1.4 1.1 2.4.3-.5.9-1.2 1.1-2 .7-1-.8-2.1-1.5-3.4-1.7z"/>
    <path d="M77.3 89c-.8.2-1.4 0-1.5-.7 0-.6.7-.5 1.2-.6.6-.1 1.1.2 1.1.9.1.9-.6.1-.8.4z" class="st6"/>
  </g>
</svg>
