<svg xmlns="http://www.w3.org/2000/svg" xmlns:xlink="http://www.w3.org/1999/xlink" xml:space="preserve" id="Layer_1" x="0" y="0" style="enable-background:new 0 0 216 216" version="1.1" viewBox="0 0 216 216">
  <style>
    .st1{fill:#fff}.st23{fill:#ff3e26}.st68{stroke-width:.2654}.st68,.st71,.st72{stroke:#000;stroke-miterlimit:10;fill:#fff}.st71{stroke-width:.5307}.st72{stroke-width:.199}
  </style>
  <defs>
    <path id="SVGID_00000003819400622618973930000000955133281786172825_" d="M-233.3 101.9c0-36.5 41-97.7 81.3-98s94.7 17.7 109.7 34.2c23.7 26.1 18 99.4 18.1 115.8.1 16.5-33.9 58.9-79.8 59.1-49.7.2-87.1-8.5-106.5-22.3-16.1-11.4-22.8-48-22.8-88.8z"/>
  </defs>
  <clipPath id="SVGID_00000090989299938088390570000014649241087058637497_">
    <use xlink:href="#SVGID_00000003819400622618973930000000955133281786172825_" style="overflow:visible"/>
  </clipPath>
  <g style="clip-path:url(#SVGID_00000090989299938088390570000014649241087058637497_)">
    <defs>
      <path id="SVGID_00000001647542743359251350000000938108451016040589_" d="M-85.6 124c-.2 0-.3-.1-.4-.3l-.5-.9c-.3-.5-.8-1.2-.7-2 0-.1 0-.3.1-.4 0-.1.1-.3.1-.4 0-.2-.1-.5-.3-.6l-.2-.1.2-.1.1-.1v-.2c-.1-.1-.3-.2-.5-.2h-.1v-.1c0-.2.1-.4.3-.5l.1-.1.5.3c.3-1 .4-1.9.4-2.9-.2 0-.5-.2-.5-.5 0-.2 0-.4.1-.5 0-.1.1-.1.1-.2v-.8c0-.4 0-.9.1-1.3.1-.2.2-.3.3-.5.1-.1.1-.2.2-.3.3-.6.3-1.3.3-2v-.9c0-.7.2-1.4.4-2.1.2-.8.4-1.7.4-2.6 0-.3-.1-.5-.1-.7-.2-.5-.7-.9-1.3-1.2l-1.2-.7c-.1-.1-.3-.2-.4-.4v-.3c0-.2-.2-.4-.4-.6l-.3-.3c-.2-.2-.2-.5-.3-.8 0-.2-.1-.3-.2-.5-.2-.4-.5-.7-.9-1-.5-.4-.6-.8-.5-1.1.1-.2.2-.3.3-.4l.1-.1c.1-.1.2-.2.2-.4 0 0 0-.1-.1-.1 0-.1-.1-.1-.1-.2-.1-.2 0-.4.1-.5.1-.3.3-.7.6-1l.1-.1c.1-.1.2-.2.2-.3v-.5c0-.1.1-.2.2-.2l.1-.1c.2-.3.3-.7.2-1.1-.1-.4-.3-.8-.5-1.1 0-.1-.1-.1-.1-.1-.1 0-.1 0-.2.1-.3.2-.6.2-.9.3h-.4l-.3-.3v-.1c-.2-.3-.5-.4-.8-.6-.1 0-.3-.1-.4-.2-.1-.1-.1-.2-.1-.3-.1-.3-.2-.5-.4-.7-.3-.3-.8-.5-1.3-.6l-.8-.3c-.2-.1-.4-.1-.6-.3-.1-.1-.1-.1-.1-.2 0 0 0-.1-.1-.1-.1-.2-.3-.3-.6-.3-.1 0-.2 0-.3.1h-.1c-.1 0-.1.1-.2.1h-.3l-1.5-.3c-1-.2-1.8-.6-2.6-1.4-.1-.1-.2-.2-.3-.4-.1-.1 0-.3 0-.4v-.2c0-.7-.5-1.2-1.1-1.7l-.1-.1c-.9-.9-1.6-1.9-2.2-3-.1-.2-.2-.4-.4-.5-.1-.1-.2-.1-.3-.1-.1 0-.1 0-.2.1 0 .5.2.9.4 1.2.2.2.3.4.5.6l.4.4c.5.6.8 1.3 1.1 1.9 0 .1.1.2.1.4v.2l-1-.9c-.1-.1-.2-.1-.2-.2s-.1-.2-.1-.3v-.2c-.1-.2-.2-.2-.4-.3-.2-.1-.4-.2-.5-.4-.1-.1-.1-.2-.1-.4v-.1c-.1-.3-.3-.6-.5-.8-.2-.2-.4-.4-.5-.6-.1-.2-.1-.4-.2-.6-.1-.3-.2-.6-.4-.8-.1-.1-.2-.1-.3-.2-.1 0-.2-.1-.2-.1-.5-.3-.7-.8-1-1.2-.2-.4-.4-.8-.7-1l-.1-.1-.3-.3c-.2-.2-.2-.5-.2-.7l-.2-1.6c-.1-.6-.1-1.1 0-1.6.1-.4.2-1-.1-1.4 0 0 0-.1-.1-.1-.1-.1-.1-.2-.1-.4 0-.1 0-.3.1-.4.1-.1.2-.1.2-.1.2 0 .3.1.4.2.1.1.1.1.2.1s0-.2 0-.3c-.1-.3-.2-.8-.5-1.1-.3-.3-.6-.4-1-.5h-.1c-.4-.1-.9-.3-1.1-.7l-.1-.7c0-.1 0-.2-.1-.3-.1-.1-.2-.2-.3-.4-.1-.1-.3-.3-.3-.4 0-.1-.1-.3-.1-.4v-.2c-.1-.3-.2-.5-.4-.7 0-.1-.1-.1-.1-.2-.2-.2-.3-.5-.5-.8-.1-.2-.3-.5-.4-.7-.3-.4-.7-.8-1.2-.9h-.2c-.2 0-.3 0-.5-.1s-.4-.3-.6-.5c-.2-.2-.4-.4-.6-.5h-.3c-.2 0-.4.1-.5 0-.1-.1-.3-.1-.3-.2-.1-.1-.2-.2-.5-.2s-.5-.2-.7-.4c-.1-.1-.2-.1-.3-.2-.1-.1-.3-.1-.4-.1-.1 0-.3 0-.3.2v.2c0 .1 0 .2-.1.3-.1.2-.3.2-.5.3-.4.1-.8.4-1.1.7l-.1.1-.1-.1c-.3-.4-.2-1.1.1-1.4l.2-.2c.1-.1.2-.1.3-.2.1-.1.1-.2 0-.3 0 0 0-.1-.1-.1s-.2 0-.3.2c-.5.6-1 1.2-1.2 2v.1c0 .1 0 .2-.1.3-.1.1-.2.3-.3.4-1.2 1.4-2.8 2.6-4.5 3.4h-.1c-.1 0-.2 0-.2-.1-.1-.1-.1-.2 0-.3.1-.1.2-.2.3-.2.6-.3 1.1-.6 1.6-1 .6-.5 1-.9 1.2-1.4.1-.1.1-.3.1-.5 0-.1-.1-.3-.2-.3s-.1 0-.2.1v.1l.1.5-.3-.4c-.1-.1-.3-.2-.5-.2h-.1c-.1 0-.3.1-.4 0-.2-.1-.2-.4-.2-.6 0-.2 0-.3-.1-.4h-.2c-.4.1-.7 0-.9-.2-.1-.1-.2-.3-.2-.5 0-.1 0-.2.1-.3-.2-.1-.4-.4-.4-.6-.1-.3 0-.6.1-.8.1-.4.2-.8.6-1 .1 0 .2 0 .3-.1h.1c.3 0 .5-.2.7-.5.2-.3.2-.6.1-.8 0-.1-.1-.1-.1-.2-.1-.1-.3 0-.5.1l-.1.1c-.2.1-.4.2-.7.2-.5 0-1-.3-1.2-.7 0 0 0-.1-.1-.1 0-.1-.1-.2-.1-.2l-.1-.1-.2-.2c-.1-.2.1-.4.2-.5l.7-.7c.1-.1.3-.2.4-.2.1 0 .2.1.2.2.2.2.4.4.6.4.2 0 .4-.1.5-.3 0-.2-.2-.4-.3-.5-.1 0-.1-.1-.2-.1-.2-.1-.4-.2-.5-.4-.1-.1-.1-.2-.2-.3 0 0 0-.1-.1-.1-.1-.2-.3-.4-.6-.5-.2-.1-.4-.2-.5-.4 0-.3.4-.4.6-.5.6-.2 1-.7 1.4-1.2l.3-.3c.5-.6 1.1-1.1 1.9-1.7.2-.1.4-.3.7-.3h.1c.1 0 .2.1.3.2 0 .1.1.2.1.2 0 .1 0 .2.1.2h.1c1 0 2 .1 2.9.5.1 0 .2.1.3.1l.9.3h1.3c.4 0 .7.2 1 .3.2.1.4.2.7.3.3.1.6.2.9.5l.1.1c.2.2.5.5.7.4.1-.1.2-.2.2-.4.1-.2.1-.5.3-.6.1-.1.3 0 .5 0h.2c.3 0 .6-.2.8-.4.1-.1.2-.1.2-.2.1 0 .2-.1.4-.1.1 0 .2 0 .3.1 0 0 0 .1.1.1v.1c0 .1.1.1.1.1h.1c.1 0 .2-.1.2-.2l.1-.1c.1 0 .1-.1.2-.1.2 0 .3.2.4.4 0 .1.1.3.2.4.1.1.2.1.3.1.1-.1.1-.2.2-.3 0-.2.1-.3.2-.4h.1c.2 0 .3.2.3.4v.1c0 .1 0 .2.1.3.1.1.2 0 .3-.1l.1-.1c.1-.1.2-.2.4-.2h.4c.4.1.7.3 1 .6.3.2.7.5 1.1.6.1 0 .2 0 .4.1.2 0 .3 0 .5.1.3.1.6.3.6.7v.1h-.1c-.1 0-.3 0-.4.1-.1.1-.1.2-.1.3 0 .1.2.1.3.1.5 0 1.1 0 1.6-.1h.4c.3 0 .5.1.6.2 0 0 .1.1.1.2l.2.2c.1 0 .1-.2.1-.4v-.1c0-.4.2-.8.6-1 .3-.2.8-.1 1.1.1l.3.3c.1.2.2.3.4.4.1.1.3.1.4.1.4 0 .8 0 1.2.1h.2c.1 0 .1-.2.1-.3 0-.2.1-.3.2-.4.3 0 .6.1.7.4.1.1.1.3.1.4v.3c0 .2.2.3.3.3.1 0 .1-.1.1-.3v-.3c.1-.2.3-.4.4-.5.2-.2.3-.3.3-.4v-.2c-.1-.2 0-.4.1-.6l.1-.1V49c0-.1-.1-.1-.2-.2h-.1c-.2 0-.3-.1-.5-.2s-.3-.4-.3-.6c-.2-.5-.2-.8-.2-1.2 0-.4.2-.8.5-1.1.1-.1.2-.1.4-.1.1 0 .2.1.3.2.6.5.9 1.4.8 2.2v.2c0 .1.2.2.3.2.1.1.3.1.4.3.1.1.1.3.1.4l.2 1.1c.1 0 .2-.2.2-.3v-.1c0-.2 0-.5.2-.6.2.1.4.2.6.5.1.2.1.5 0 .7 0 0 0 .1-.1.1 0 .1-.1.1-.1.2v.3c0 .2.1.4.2.5.1.1.3.2.4.1 0 0 .1-.1.1-.2.1-.2.1-.4.2-.6.1-.3.1-.6.3-.8l.1-.1c.1-.1.1-.2.2-.3 0-.1-.1-.2-.1-.4-.1-.2-.2-.4-.1-.6.1-.2.3-.2.6-.1.4.1 1 .3 1.3.8.2.4.1.9-.2 1.2l-.1.1c-.1.1 0 .3.1.4.1.1.3.3.3.5s-.1.3-.1.4c-.2.3-.4.7-.8.8-.3.1-.6 0-.9 0-.2 0-.3-.1-.5-.1h-.2v.2c.1.3 0 .7-.3.9h-.1l-.1.1v.2c0 .6-.3 1.2-.9 1.2h-.1v.3c-.1.1-.2.2-.4.2-.1 0-.2.1-.2.1s0 .1.1.1c0 .1.1.2.1.3 0 .2-.3.3-.4.4-.6.2-.9.7-1.3 1.2-.2.3-.3.5-.2.8v.9c0 .2 0 .4.2.6l.3.3c.1 0 .2.1.2.1.4.3.6.7.5 1.2h.5c.7 0 1.2.2 1.5.5.1.1.1.2.2.2.1.1.1.2.2.3.3.3.8.4 1.3.4.1 0 .3 0 .4.1.2 0 .3.1.4.2.1.1.1.2.1.3 0 .7.2 1.4.5 2 .2.4.5.7.8.6.1 0 .1-.1.2-.2.3-.3.3-.8.1-1.2 0-.1-.1-.1-.1-.2-.1-.2-.3-.4-.2-.7.1-.2.3-.4.5-.5 0 0 .1 0 .1-.1.4-.3.7-.7.7-1.2.1-.5 0-1-.3-1.4 0 0 0-.1-.1-.1-.1-.1-.2-.2-.2-.3-.1-.3 0-.6.1-.9 0-.1 0-.1.1-.2.1-.5.1-1-.1-1.5v-.1c-.1-.1-.1-.3-.1-.5s.1-.5.3-.6h.3l1.6.2c.1 0 .2 0 .4.1l.2.2c.2.3.5.5.8.6.1.1.2.1.3.2.1.1.1.3.1.5 0 .5.1 1 .4 1.3.2.2.4.3.6.3.1 0 .3 0 .5-.2.1-.1.1-.2.1-.3 0-.1.1-.2.1-.3.1-.2.3-.4.5-.4h.2c.1.1.2.2.2.3.4.7.8 1.4 1.1 2.1 0 .1.1.3 0 .5l-.1.1h-.1l-.1.1c0 .1.1.3.2.4.4.4 1 .7 1.5 1 .1 0 .2.1.3.1.2.1.2.2.2.2 0 .1 0 .1-.1.1 0 .1.1.1.2.1.2 0 .4.1.5.4v.2c0 .1.1.2.1.2l.1.1c.2.3.1.7-.2.8-.1.1-.3.1-.4.1h-.1c-.3.1-.5.2-.7.5 0 .1-.1.1-.1.2-.2.2-.3.5-.6.5-.1 0-.3 0-.4-.1-.6-.2-1.2-.2-1.8-.1-.3.1-.5.2-.6.3l-.1.1c0 .1-.1.1-.1.2-.1.1-.3.2-.5.3-.1 0-.2.1-.3.2-.1 0-.1.1-.1.2h.1c.1 0 .1 0 .2-.1.3-.2.7-.4 1-.5.2-.1.5-.1.7-.1.1 0 .3.2.3.3v.3l-.1.1-.1.1v.2c0 .1 0 .2-.1.3v.2c0 .2.2.4.4.5.1.1.3.2.5.2s.3 0 .4-.1c0-.1.1-.1.1-.2V69c.1-.2.2-.3.4-.3.1 0 .2.1.3.2.1.1.1.2.1.4 0 .1-.1.3-.2.3 0 0-.1 0-.1.1-.1 0-.1.1-.2.1v.1c-.1.3-.5.4-.8.4h-.1c-.2 0-.6.1-.7.4 0 0 0 .1-.1.2 0 .1-.1.2-.1.2-.1.2-.4.2-.5.1-.1-.1-.1-.1-.1-.2-.1-.4 0-.8.3-1 .1-.1.2-.1.2-.2s-.1-.1-.2-.1-.2.1-.3.1c-.4.3-.9.6-1.4.8-.4.2-.6.4-.6.8v.2c0 .2 0 .4-.1.6-.1.2-.3.2-.5.3-.5.1-.9.3-1.1.7-.1.1-.1.2-.1.4s-.1.4-.2.5l-.3.3c-.1.1-.3.2-.3.3-.1.2 0 .4 0 .6 0 .2.1.4 0 .6-.1.3-.4.5-.7.6h-.1c-.4.2-.8.5-1.1.7-.4.3-.8.6-.8 1 0 .2.1.5.3.7.4.6.8 1.4.6 2.1-.1.2-.2.4-.4.3-.1 0-.1 0-.1-.1-.4-.3-.7-.8-.8-1.3v-.2c0-.1 0-.3-.1-.4-.1-.4-.6-.6-1-.7-.3-.1-.7-.2-1-.2-.3 0-.6.1-.8.3 0 0 0 .1-.1.1-.1.2-.3.3-.5.3h-.1c-.1 0-.1-.1-.2-.1l-.1-.1h-.3l-1.4.1c-.2 0-.4 0-.5.1-.2.1-.4.4-.5.7-.1.1-.1.2-.2.3-.1.1-.1.2-.1.3 0 0 0 .1.1.1l.1.1c.2.2.2.6 0 1v.1c-.1.3-.2.5-.1.7 0 .2.1.3.2.4.1.1.1.3.2.5v.3c0 .1 0 .2.1.3 0 .1.1.2.2.3.4.3.8.5 1.2.3.1 0 .2-.1.2-.1.1-.1.2-.2.4-.2h.2c.2-.1.2-.3.3-.5 0-.1.1-.3.2-.4.1-.2.4-.4.7-.5h.8c.1 0 .3 0 .4.2.1.2-.1.4-.2.5-.1.1-.2.1-.2.2v.3c.1.3-.1.5-.3.6v.4c0 .1-.1.2 0 .3 0 .1.2.1.4.1h1.6c.2 0 .4.2.4.4v.3l-.2 1.6v.2s0 .1.1.1l.2.2c.3.3.7.7 1 .6.1 0 .2-.1.2-.1.2-.1.4-.2.7-.1.2 0 .3.1.5.2s.3.2.5.2c.1 0 .2-.1.2-.2l.2-.2c.2-.2.4-.5.7-.6.1 0 .2-.1.3-.1.1 0 .2-.1.3-.1 0 0 .1 0 .1-.1.1-.1.2-.1.4-.1h.1c.2.1.3.3.2.6 0 .1-.1.2-.1.2 0 .1-.1.2-.1.2v.2l.1.1c.1 0 .1-.1.2-.1.1-.1.1-.3.2-.4 0-.1 0-.2.1-.3.1-.1.2-.2.4-.2.3 0 .6.1.8.2h.1c.1 0 .2.1.2.1h.3c.2 0 .4 0 .5.1.2 0 .3.1.5.1.1 0 .1-.1.2-.1.1-.1.2-.1.4-.1s.4.2.6.3l.2.2c.6.6 1.3 1.2 2.1 1.4.2 0 .4.1.6.1.2 0 .3 0 .5.1.4.1.8.3 1 .6.1.1.1.2.2.3 0 .1.1.2.1.3 0 .1.2.2.4.3.4.3.9.7.8 1.1 0 .2-.1.3-.3.4 0 0-.1 0-.1.1-.1 0-.1 0-.2.1v.1h.1c.1 0 .1-.1.2-.1.1-.1.3-.1.4-.2.2 0 .4 0 .5.2.1.1.1.2.1.3 0 .2-.2.3-.3.4-.1.1-.1.1-.1.2.2 0 .4-.1.5-.3h.1c.1-.1.2-.2.4-.2.1 0 .2 0 .3.1.3.1.5.3.8.4.1.1.2.1.3.2h.4c.9 0 1.7.2 2.4.7l.1.1c.2.1.3.2.5.3h.3c.1 0 .3 0 .4.1.3.2.4.5.4.7.1.6-.2 1.3-.7 1.7-.1.1-.1.1-.2.1-.2.1-.4.3-.5.5v.1c0 .1 0 .1-.1.2-.1.2-.2.3-.3.4l-.2.2c-.2.2-.2.5-.2 1v.2c.1.3.1.6 0 1 0 .1-.1.2-.1.2 0 .1-.1.2-.1.3v.4c-.1.2-.2.3-.3.5l-.1.1c-.1.1-.1.3-.1.4v.4c-.1.3-.4.5-.7.6-.3.1-.6.2-.9.2-.1 0-.3 0-.4.1-.5.1-.9.3-1.1.6-.2.3-.3.7-.3 1-.1.4-.1.8-.3 1.1-.2.3-.4.4-.6.6-.2.1-.4.3-.5.4-.2.3-.3.6-.5.9l-.3.6c-.2.4-.7.9-1.2.9-.1 0-.2 0-.3-.1-.2-.1-.3-.2-.4-.3-.1-.1-.2-.2-.3-.2.2.3.4.7.5 1.1 0 .1.1.2.1.3 0 .1 0 .3-.1.4-.3.4-.8.6-1.3.7l-1.2.3c.1.3.1.6 0 .8-.1.4-.4.6-.8.6-.1 0-.2-.1-.2-.1-.1-.1-.2-.1-.3-.1 0 0-.1 0-.1.1s0 .3.1.4c0 0 0 .1.1.1.1.2.3.4.2.6 0 .2-.1.3-.2.4-.1.1-.2.2-.2.3v.3c0 .3-.3.4-.5.5-.1.1-.3.1-.4.2-.1.1-.1.2-.1.3 0 .2.1.4.3.6l.1.1c.2.1.3.2.4.5 0 .2-.1.4-.2.5l-1.1 1.4c-.2.2-.4.5-.3.8 0 .1.1.2.1.3.1.2.2.5.1.7l-.1.1-.1-.1c-.1-.1-.2-.1-.3-.1-.2 0-.3.1-.4.2-.1.1-.1.2-.1.3 0 .1 0 .2.1.3.1.2.1.3.1.5v.1h-.8z"/>
    </defs>
    <use xlink:href="#SVGID_00000001647542743359251350000000938108451016040589_" style="overflow:visible;fill:#fff"/>
    <clipPath id="SVGID_00000083083051716289529510000011574217899634071982_">
      <use xlink:href="#SVGID_00000001647542743359251350000000938108451016040589_" style="overflow:visible"/>
    </clipPath>
    <use xlink:href="#SVGID_00000001647542743359251350000000938108451016040589_" style="overflow:visible;fill:none;stroke:#000;stroke-width:.2614;stroke-miterlimit:10"/>
    <defs>
      <path id="SVGID_00000054984723681976689220000011786302397007314853_" d="M-58.2 80.5h-.2c-.2-.1-.3-.3-.4-.4-.1-.1-.1-.2-.2-.3-.1 0-.2-.1-.3-.1h-.4c-.1 0-.2 0-.4-.1-.1-.1-.2-.1-.3-.2-.3-.3-.5-.6-.7-1-.1-.2-.1-.3-.2-.5s-.1-.3-.2-.5v-.1c-.1-.2-.2-.3-.2-.5s.1-.4.3-.5c.1-.1.2-.2.2-.3v-.1c-.1 0-.1 0-.2.1s-.2.3-.4.3c-.1 0-.1-.1-.1-.2 0-.3 0-.5-.1-.5 0-.1-.1-.2-.2-.3-.1-.1-.1-.2-.2-.3-.2-.4-.4-.9-.4-1.5v-.2c-.1-.3-.2-.6-.1-.9.1-.3.3-.5.5-.6h.4c.1 0 .2-.1.2-.1v-.2c-.1-.3 0-.6.1-.9.1-.2.2-.4.2-.6 0-.2-.1-.4-.2-.5-.1-.2-.2-.4-.2-.6v-.4c0-.2.1-.4-.1-.6l-.1-.1c-.1 0-.1-.1-.2-.1-.1-.1-.1-.2-.2-.3 0-.1-.1-.1-.1-.2s-.1-.1-.2-.1v.2c-.1.1-.2.2-.5.2s-.5-.1-.6-.4c0-.2 0-.3.1-.5l.3-.9v-.3c0-.1-.1-.1-.1-.2 0 0 0-.1-.1-.1-.2-.3-.2-.6-.2-.9 0-.2 0-.4-.1-.6-.1-.2-.1-.4-.3-.6-.1-.1-.1-.2-.2-.4s-.1-.4-.2-.5c-.1-.3-.2-.6-.3-.8l-.1-.1c-.1-.1-.2-.2-.2-.3 0-.1 0-.2-.1-.2 0-.1 0-.2-.1-.3-.1-.2-.2-.3-.4-.4-.2-.2-.5-.4-.8-.5-.2-.1-.5-.1-.8 0-.1 0-.2.1-.3.1-.2.1-.4.1-.6.1-.1 0-.2 0-.3-.1 0 0-.1 0-.1-.1-.1-.1-.2-.1-.3-.1v.2c.1.1.1.3 0 .4-.1.1-.2.1-.4 0l-1.2-.8c-.1-.1-.2-.2-.1-.3 0-.1.1-.1.1-.2l.7-.3c-.1-.1-.3-.1-.5-.1h-.2c-.4-.1-.8-.3-.7-.7 0-.3.3-.5.5-.5s.5 0 .7.1h.2s.1 0 .1-.1V57s-.1-.1-.1-.2.1-.2.3-.2c.2 0 .4 0 .6.1h.2v-.2l-.2-.2-.1-.1-.1-.1s-.1.1-.2.1l-.1.1c-.1.1-.3.2-.6.2h-.4c-.1 0-.2 0-.2-.1-.1-.1-.1-.2-.1-.2v-.1c-.1-.1-.2-.2-.4-.2-.2-.1-.4-.1-.6-.3-.1-.2-.1-.4-.1-.5v-.5c0-.1 0-.2.1-.3l.2-.2 1.3-.7v-.2c.1-.1.2-.2.3-.2h.5c.4 0 .7-.3.9-.6.1-.2.3-.3.3-.6 0-.2 0-.4-.2-.5l-.2-.1h.3c.1 0 .1-.1.2-.2 0-.1 0-.2-.1-.2l-.1-.1.1-.1c.1 0 .1-.1.1-.2h-.2l-.1.1c-.1.1-.1.1-.2.1h-.2c-.3 0-.5-.3-.7-.5 0-.1-.1-.2-.1-.2 0-.2.1-.5.4-.7.3-.2.4-.3.5-.5.1-.3.2-.7.4-.9.3-.4.8-.7 1.3-.5h.1c.1 0 .1-.1.1-.2 0-.3-.1-.6-.2-1V46c-.1-.2-.1-.4-.1-.6.1-.3.3-.5.6-.5h.2c.1 0 .2.1.3.2.1.1.2.1.3.1-.1-.2-.3-.3-.5-.5l-.1-.1 2.1-1.2c.1-.1.3-.2.5-.1.1 0 .1 0 .2.1.3.2.4.6.4 1.2v1c.1-.2.1-.5.1-.8v-.2l.1.1c.2.1.5.1.8.1h.5c-.3-.5-.5-1.1-.6-1.7v-.2c0-.1.2-.2.3-.2.1 0 .2 0 .3.1.4.2.6.5.9.8.2.2.4.5.6.7l.1.1c.1.1.2.1.3.2.1.1.1.2.1.3.1.2.1.3.2.3 0 0 .1 0 .1-.1.1-.1.1-.2 0-.3 0-.1-.1-.2-.1-.3-.1-.1-.1-.2-.1-.3 0-.1 0-.3.1-.4.1-.1.2-.2.3-.1.1 0 .1 0 .2.1h.1v-.2s-.1-.1-.2-.1c-.1-.1-.2-.1-.3-.2-.1-.1-.1-.2-.1-.3v-.1c-.1-.3-.2-.5-.4-.7l-.1-.1.1-.1c.1-.2.3-.2.5-.2v-.1c0-.3-.2-.6-.4-.8l-.2-.2h.3c.2 0 .4-.1.5-.3.2-.2.4-.3.6-.3.3 0 .5.3.7.6.1.2.3.4.5.5.3.1.6-.2.8-.4l.1-.1c0-.1 0-.2-.2-.3l-.3-.3c-.1-.1 0-.3 0-.4.1-.2.2-.3.4-.3s.5 0 .7.2v-.2c0-.1-.1-.2-.1-.3 0-.2.2-.2.3-.3 1.1-.3 2.5-.2 3.4.5.1.1.2.1.2.1h.6c.3 0 .6.1.6.4.1.3-.2.6-.4.6h-.8c-.7 0-1.5.3-2 .8.2 0 .3-.1.5-.2s.5-.3.7-.3c.2 0 .3.1.4.1h.1c.2.1.3.1.5.1.4 0 .9-.1 1.2-.4l.1-.1.1.1c.2.4.2.8 0 1.2.1 0 .2 0 .3-.1h.3c.3 0 .4.1.5.3v.2h.3c.2.1.4.1.5.4v.3c-.2.6-.7 1-1.3 1.3-.1.1-.3.2-.4.2-.2.1-.5.1-.7.1h-.1c-.5 0-1 .1-1.4.2-.3 0-.5.1-.7.2-.3.1-.5.4-.7.6-.1.1-.1.1-.1.2h.1c.1 0 .1-.1.2-.1.5-.5 1.3-.7 1.9-.8.3-.1.6-.1.9 0 .3.1.6.3.6.6s-.2.6-.3.7l-.2.2-.3.3v.1s0 .1.1.1.1-.1.2-.1c.3-.2.5-.5.8-.7l.2-.2v-.3c0-.1 0-.3.1-.4.1-.2.4-.3.6-.2.2.1.3.2.4.4.2.5 0 1-.1 1.5-.2.8-.4 1.5-.6 2.3 0-.1 0-.1.1-.2.2-.7.6-1.4 1-2 .1-.1.3-.4.5-.4h.3c.2 0 .5-.1.5-.3v-.4c.1-.5.7-.8 1.2-.8s.9.3 1.3.7c.2.2.3.5.3.7 0 .2-.1.4-.2.5l-.4.8c-.2.3-.4.7-.7 1-.2.2-.5.4-.7.4h-.4c-.2 0-.4.1-.5.2h.1c.1 0 .2 0 .3-.1.1 0 .1 0 .2-.1.2-.1.5 0 .6.1.1.1.1.2.1.3 0 .5-.5.9-1 .8-.1 0-.2 0-.3-.1-.2-.1-.4-.1-.5 0-.2.1-.2.5-.1.7 0 0 0 .1.1.1 0 0 .1 0 .1-.1v-.1c0-.1 0-.2.1-.2.1-.1.2-.2.3-.2.1 0 .3.1.4.2.2.2.2.5 0 .7-.1.2-.4.3-.6.3h-.1c-.1.1-.1.5-.1.6 0 0 0 .1.1.1 0 .1.1.2.1.3.1.4-.1.7-.3 1v.1c-.4.7-.6 1.5-.7 2.3.3 0 .5 0 .7.1.2.1.3.2.3.4 0 .1-.1.2-.2.2l-.1.1c-.1.1 0 .2 0 .3.1.1.2.1.3 0 .1 0 .2-.1.3 0 .1 0 .1.1.1.2.1.2.1.4.1.6 0 .2-.2.5-.4.6-.2.1-.4 0-.6-.1-.1-.1-.3-.1-.4-.1-.2 0-.3.2-.3.4s.1.4.3.5h.1c.1 0 .2.1.3.2.1.1.1.2.1.3.2.1.3.3.4.5.1.2.1.5.1.7 0 .1 0 .2-.1.3-.1.2-.4.2-.7 0v.1c0 .1.1.1.2.2.2.2.4.4.5.7.1.2.1.3 0 .4-.1.1-.3.2-.5.1 0 0-.1 0-.1-.1-.1 0-.1-.1-.2-.1s-.3.1-.3.2 0 .3.1.3c0 0 .1 0 .1.1.1 0 .1 0 .2.1.3.2.3.5.2.8 0 .1 0 .2-.1.3-.1.1-.2.1-.3.1-.1 0-.3.1-.5.1-.3 0-.5-.1-.6-.2l-.2-.2c-.1-.1-.2-.3-.3-.2-.1 0-.2.1-.3.3l-.2.4v.1c.2.3.4.6.6.8l.9 1.2c.2.2.3.4.3.7v.4s0 .1.1.1c0 .1.1.1.1.2 0 .2-.1.4-.4.5-.1 0-.1.1-.2.1l.2.2c0 .1-.1.2-.1.3l-1.2 1.4-.3.3c-.1.1-.2.1-.4.2-.6.2-1.1.5-1.8.5h-.1c-.2 0-.5.1-.6.2l-.3.3-1.2 1.8c-.1.1-.2.3-.4.4-.2.1-.4.1-.6 0l-.1-.1-.1-.1s-.1 0-.1.1c-.1.2-.3.2-.5.3-.2.1-.4.2-.5.3v.2c0 .6-.2 1.1-.4 1.6l-.9 2.7c-.1.2-.1.4-.3.6.8.7.6.7.5.7zm8.8-12.8h-.1c-.1 0-.1.1-.1.2s-.1.2-.1.2c-.1.1-.3.2-.4.2-.2 0-.3.1-.3.2v.1c0 .2.3.4.6.4.2 0 .4-.1.6-.1.1 0 .1 0 .2-.1.1 0 .3-.1.4-.1-.1-.1-.2-.2-.2-.4v-.2c0-.1-.1-.3-.1-.4h-.5zm-9.5-25.9h.8-.8z"/>
    </defs>
    <use xlink:href="#SVGID_00000054984723681976689220000011786302397007314853_" style="overflow:visible;fill:#fff"/>
    <clipPath id="SVGID_00000096779177077254717160000011794382935956747174_">
      <use xlink:href="#SVGID_00000054984723681976689220000011786302397007314853_" style="overflow:visible"/>
    </clipPath>
    <use xlink:href="#SVGID_00000054984723681976689220000011786302397007314853_" style="overflow:visible;fill:none;stroke:#000;stroke-width:.2614;stroke-miterlimit:10"/>
    <defs>
      <path id="SVGID_00000111901749745335393070000016673680873698901151_" d="M-84.3 125.1c-.2 0-.3-.1-.4-.2v-.2h-.8c-.1 0-.2-.1-.2-.2s0-.2.1-.2c.1-.1.2 0 .3 0h.1c0-.2.1-.4.1-.5v-.1c0-.1-.1-.1-.1-.2-.1-.1-.2-.2-.2-.4 0-.1.1-.2.3-.2h.1l.3.1c.1 0 .4.1.4.3v.3c0 .1.1.2.3.3.1.1.2.1.3.2l.1.1c0 .1.1.1.1.2h.2c.2 0 .3.1.3.3 0 .1 0 .1-.1.2s-.2.1-.3.1h-.4c-.1 0-.2 0-.2.1-.1 0-.1 0-.2.1 0-.2 0-.1-.1-.1z"/>
    </defs>
    <defs>
      <path id="SVGID_00000047743939698946160950000007125082301318113461_" d="M-80.1 122.8c-.1 0-.3-.1-.3-.2v-.1h-.2c-.1 0-.1.1-.2.1h-.2l-.2-.2c0-.1 0-.3.1-.3.1-.1.3-.2.5-.2h.3l.1-.1c.2.2.4.3.6.2h.2c.1 0 .1.1.1.2s-.1.2-.1.3l-.4.3c0-.2-.1-.1-.3 0z"/>
    </defs>
    <defs>
      <path id="SVGID_00000053509422894430235580000015343819567127748512_" d="M-85.8 85.3h-.2c-.1 0-.1 0-.2-.1-.1 0-.2-.1-.2-.1-.1 0-.2 0-.4.1-.1 0-.2.1-.4.1-.1 0-.2 0-.3-.1-.1-.1-.1-.1-.1-.2 0-.2.2-.2.3-.2h.1c-.1-.3 0-.5.1-.6h.7c.2-.1.5-.1.7 0 .1 0 .2.1.3.2.1.1.2.1.2.2.1 0 .1 0 .2.1.1 0 .2 0 .3.1.1.1.2.2.2.3v.2c-.1.1-.2.2-.4.1-.2 0-.4-.1-.5-.1h-.1c0-.1-.2 0-.3 0z"/>
    </defs>
    <defs>
      <path id="SVGID_00000172419294635906551060000006187455414407188909_" d="M-87.7 84.4h-.1l-1.4-.2.2-.2c.1 0 0-.1 0-.2s-.1-.2-.2-.2c-.3-.2-.7-.5-1.1-.6-.4-.2-.8-.2-1.2 0-.1 0-.2.1-.3 0-.1 0-.2-.1-.2-.2s0-.3.1-.3c.1-.1.4-.1.5-.1h.2c.2 0 .5 0 .8.1.1 0 .1 0 .2.1.2.1.5.2.7.1.1 0 .1-.1.2-.1s.2.1.2.1c.2.3.5.5.8.7.1 0 .1.1.2.1.2.1.4.1.5.3.1.1.2.3.1.5 0 .1-.1.2-.2.3v-.2z"/>
    </defs>
    <use xlink:href="#SVGID_00000111901749745335393070000016673680873698901151_" style="overflow:visible;fill:#fff"/>
    <use xlink:href="#SVGID_00000047743939698946160950000007125082301318113461_" style="overflow:visible;fill:#fff"/>
    <use xlink:href="#SVGID_00000053509422894430235580000015343819567127748512_" style="overflow:visible;fill:#fff"/>
    <use xlink:href="#SVGID_00000172419294635906551060000006187455414407188909_" style="overflow:visible;fill:#fff"/>
    <clipPath id="SVGID_00000129922825103694733030000001617595139333649816_">
      <use xlink:href="#SVGID_00000111901749745335393070000016673680873698901151_" style="overflow:visible"/>
    </clipPath>
    <clipPath id="SVGID_00000122700109711300546020000010099761094618402464_" style="clip-path:url(#SVGID_00000129922825103694733030000001617595139333649816_)">
      <use xlink:href="#SVGID_00000047743939698946160950000007125082301318113461_" style="overflow:visible"/>
    </clipPath>
    <clipPath id="SVGID_00000124138587222870873990000011569563057973690755_" style="clip-path:url(#SVGID_00000122700109711300546020000010099761094618402464_)">
      <use xlink:href="#SVGID_00000053509422894430235580000015343819567127748512_" style="overflow:visible"/>
    </clipPath>
    <clipPath id="SVGID_00000139269379459559215050000017860393076139816626_" style="clip-path:url(#SVGID_00000124138587222870873990000011569563057973690755_)">
      <use xlink:href="#SVGID_00000172419294635906551060000006187455414407188909_" style="overflow:visible"/>
    </clipPath>
    <use xlink:href="#SVGID_00000111901749745335393070000016673680873698901151_" style="overflow:visible;fill:none;stroke:#000;stroke-width:.2614;stroke-miterlimit:10"/>
    <use xlink:href="#SVGID_00000047743939698946160950000007125082301318113461_" style="overflow:visible;fill:none;stroke:#000;stroke-width:.2614;stroke-miterlimit:10"/>
    <use xlink:href="#SVGID_00000053509422894430235580000015343819567127748512_" style="overflow:visible;fill:none;stroke:#000;stroke-width:.2614;stroke-miterlimit:10"/>
    <use xlink:href="#SVGID_00000172419294635906551060000006187455414407188909_" style="overflow:visible;fill:none;stroke:#000;stroke-width:.2614;stroke-miterlimit:10"/>
    <defs>
      <path id="SVGID_00000105405027989434211250000011733033023992106404_" d="m-55.4 66.5.1-.2c.1-.3.4-.5.7-.6h.1c.2 0 .3-.1.3-.1v-.1c0-.1-.2-.1-.3-.1h-.1c-.4 0-.5-.2-.5-.3v-.2h.2c.1 0 .2 0 .3-.1 0-.1.1-.2 0-.2 0 0-.1-.1-.1-.2 0-.2.1-.4.3-.4h.3c0-.4 0-.7-.2-1.1h-.3c-.1 0-.3 0-.4-.1-.1-.1-.1-.4 0-.6-.1-.1-.2-.2-.2-.3 0-.1 0-.2-.1-.3v-.2c0-.1 0-.1-.1-.2 0-.1 0-.1-.1-.2-.2-.6.2-1.3.8-1.5.2-.1.4 0 .5.1.1.2 0 .4-.1.5-.1.1-.1.2-.1.3.1 0 .2 0 .3-.1.2-.1.3-.1.5-.1.1 0 .2.1.2.2 0 .2-.1.5-.2.6-.1.1-.3.4-.2.6 0 0 .1 0 .1.1 0 0 .1 0 .1.1.2.1.2.3.3.5 0 .1 0 .1.1.2.1.2.2.4.4.6l.2.2c.1.2.4.5.3.9.4 0 .7.2.7.4 0 .1 0 .2-.1.3-.1.3-.3.7-.6.9-.2.1-.4.2-.6.2l-2.5.5z"/>
    </defs>
    <defs>
      <path id="SVGID_00000133519685828186953200000003679439155379626136_" d="M-61.8 55h-.3c-.1 0-.3-.1-.4-.2-.2-.1-.3-.2-.5-.2-.1 0-.3 0-.4-.2 0-.2.1-.3.2-.3l.1-.1s0-.1-.1-.2c0-.1-.1-.1-.1-.2v-.5c0-.1-.1-.2-.3-.2h-.1c-.1 0-.3-.1-.4-.2-.1-.1-.1-.2-.1-.3 0-.1 0-.2.1-.2.1-.1.2-.1.3-.1h.1s.1 0 .1-.1l.1-.1h.1c.3 0 .5.3.6.5 0 .1.1.3.2.3s.1-.1.2-.1l.1-.1c.2-.2.4-.2.5-.2h.6c.1 0 .2-.1.3-.1.1-.1.3-.2.5-.2h.2l.3.3c0 .1.1.1.1.2.1.1.2.1.3.2l.1.1c.2.1.3.3.3.5 0 .1-.1.3-.2.3-.2.2-.4.5-.7.7-.3.2-.6.4-1 .6-.2 0-.5.1-.8.1z"/>
    </defs>
    <defs>
      <path id="SVGID_00000165198149443749545360000011336641030848208295_" d="M-78.7 68.7c-.1 0-.3-.1-.3-.2h-1c-.1 0-.2 0-.3-.1-.1-.2 0-.4.1-.5.2-.3.3-.6.4-.9.2-.4.3-.9.6-1.2.1-.1.2-.2.4-.2h.1c.1 0 .1.1.2.2v.3c0 .1-.1.2-.2.3l-.1.1c-.1.1-.1.2-.1.3h.1c.2 0 .4.1.5.3v.1h.2c.2 0 .4.1.6.4 0 .1.1.1.1.2 0 .2-.1.4-.1.5-.1.1-.1.3-.3.4-.1.1-.2.1-.4.1h-.3c-.1-.1-.2-.1-.2-.1z"/>
    </defs>
    <defs>
      <path id="SVGID_00000165920993456964063450000002059259512591255698_" d="M-57.1 65.5c-.1 0-.2 0-.3-.1-.1-.1-.2-.2-.1-.3 0-.1.1-.1.1-.1.1-.2.2-.3.3-.5v-.2h-.1c-.2-.1-.2-.3-.2-.5v-.2c.1-.2.3-.2.4-.2h.1c.1 0 .2 0 .2-.1l-.1-.1s-.1-.1-.1-.2.1-.1.1-.2c.2-.2.5-.3.8-.3h.2c.3.1.5.4.6.7 0 .1 0 .2-.1.3l-.1.1v.3c0 .2 0 .3-.1.5 0 .2-.1.4-.2.5-.2 0-.3.1-.3.1h-.1c-.1 0-.2.1-.3.2-.1.1-.2.1-.3.2-.1.1-.3.1-.4.1z"/>
    </defs>
    <use xlink:href="#SVGID_00000105405027989434211250000011733033023992106404_" style="overflow:visible;fill:#fff"/>
    <use xlink:href="#SVGID_00000133519685828186953200000003679439155379626136_" style="overflow:visible;fill:#fff"/>
    <use xlink:href="#SVGID_00000165198149443749545360000011336641030848208295_" style="overflow:visible;fill:#fff"/>
    <use xlink:href="#SVGID_00000165920993456964063450000002059259512591255698_" style="overflow:visible;fill:#fff"/>
    <clipPath id="SVGID_00000176753519636720314720000015358195117800449421_">
      <use xlink:href="#SVGID_00000105405027989434211250000011733033023992106404_" style="overflow:visible"/>
    </clipPath>
    <clipPath id="SVGID_00000045586841107617857330000001498535429169144468_" style="clip-path:url(#SVGID_00000176753519636720314720000015358195117800449421_)">
      <use xlink:href="#SVGID_00000133519685828186953200000003679439155379626136_" style="overflow:visible"/>
    </clipPath>
    <clipPath id="SVGID_00000029734857263587107190000007363255886048287381_" style="clip-path:url(#SVGID_00000045586841107617857330000001498535429169144468_)">
      <use xlink:href="#SVGID_00000165198149443749545360000011336641030848208295_" style="overflow:visible"/>
    </clipPath>
    <clipPath id="SVGID_00000082370127557639994940000011184357852935079095_" style="clip-path:url(#SVGID_00000029734857263587107190000007363255886048287381_)">
      <use xlink:href="#SVGID_00000165920993456964063450000002059259512591255698_" style="overflow:visible"/>
    </clipPath>
    <use xlink:href="#SVGID_00000105405027989434211250000011733033023992106404_" style="overflow:visible;fill:none;stroke:#000;stroke-width:.2614;stroke-miterlimit:10"/>
    <use xlink:href="#SVGID_00000133519685828186953200000003679439155379626136_" style="overflow:visible;fill:none;stroke:#000;stroke-width:.2614;stroke-miterlimit:10"/>
    <use xlink:href="#SVGID_00000165198149443749545360000011336641030848208295_" style="overflow:visible;fill:none;stroke:#000;stroke-width:.2614;stroke-miterlimit:10"/>
    <use xlink:href="#SVGID_00000165920993456964063450000002059259512591255698_" style="overflow:visible;fill:none;stroke:#000;stroke-width:.2614;stroke-miterlimit:10"/>
  </g>
  <path d="M79.8 6.9c17-1 132.9 16 132.9 113.5 0 18-35.8 93.2-74.3 94.6s-99-19.7-123.9-56.2c-31.3-45.7-8-147.7 65.3-151.9z" style="fill:#f5f0ed"/>
  <path d="M163 51.6c5.2 1.2 9.4 8.1 14.1 11.9 2.6 2.1 6 11 4.5 17.7-.9 3.8-4.3 8-7.6 12-4 4.9-4.3 11.7-10.1 16.3-4.9 4-18.4-1.8-22.6-7.6-3-4.1 1.6-8.7-1.7-14.6-1.7-3.1-7.3-9.5-7.3-15.7 0-6.6 11.6-13.2 14.1-14.6 2.5-1.1 9.9-6.9 16.6-5.4z" style="fill:#00c4a9"/>
  <path d="M112.3 23.2c-2.7 1-2.2 2.8-4 3.5-1.8.7-6.3 4.3-6.5 6.3-.2 2 2.2 5.6 3.1 6.9.9 1.3-1.6 3.4.2 5.8s4.7 2.7 5.8 4c1.1 1.3 3.8 4 6.7 4.3 2.9.2 7.8-5.8 6.7-7.6-1.1-1.8 2.2-5.1 3.1-6.9.9-1.8-.7-6.3-1.6-7.6-.9-1.3-2.2-6.3-3.8-6.5-1.6-.2-3.4 0-4.5 0s-2.9-3.1-5.2-2.2z" style="fill:#ffcd00"/>
  <path d="M88 23s-1.8-3.6-4.8-3.6-6.3 3.9-6.3 5.4 3.3 3.6 3.3 4.8 1.8 4.2 3.6 4.2 3.9-3 4.2-4.5 1.2-4.5 0-6.3z" style="fill:#b0dbff"/>
  <defs>
    <path id="SVGID_00000010989555026450638390000018066334727397210254_" d="M80.2 6.9c17-1 132.9 16 132.9 113.5 0 18-35.8 93.2-74.3 94.6s-99-19.7-123.9-56.2C-16.3 113.1 7 11.1 80.2 6.9z"/>
  </defs>
  <clipPath id="SVGID_00000062160067253098822110000011549878238581417089_">
    <use xlink:href="#SVGID_00000010989555026450638390000018066334727397210254_" style="overflow:visible"/>
  </clipPath>
  <g style="clip-path:url(#SVGID_00000062160067253098822110000011549878238581417089_)">
    <path d="m-18.3 116.5 68.1-14.1 43.3-26.8 44.3-28.1 37.5-39.2L188-9.9M121.8 7.9 93.5 30.3l-43 41.2L13.2 97l-20.1 12m-11.4 31.6 156.2-19.1 46-22.7 32.6-32.4L231.7 30" style="fill:none;stroke-width:.5307;stroke:#000;stroke-miterlimit:10"/>
    <circle cx="13.1" cy="110" r="1.1"/>
    <circle cx="137.6" cy="47.3" r="1.1"/>
    <path d="M51.8 73.8c-.8-3.9-.6-7.8.5-11.6l-2.1-.3c-1.1 3.8-1.3 7.7-.5 11.6m-73.4 123h260.8v33.4H-23.7z"/>
    <path d="M50 67.6s-.8-.4-1.2 0-1.3 3.1-1.1 4.1 1.6 8.3 1.9 8.6c.7.6.8.7 1.2.9.5.1 2.7.8 3 .9.3.1.2 15.7.2 15.7l35.5 1V96L94 85.3l.6-3.9 1.4-9.8s-.1-.5-.8-1.4c-.4-.6-.6-.8-.6-.8L50 67.6zM8.4 201.8s-16.3-4-17.2-3.8c-4.6 1-7.6-.1-7.6-.1v-1.5l1.2-15.7 13.6-9.9 5.1 3.1 6.5 2.5-1.6 25.4z"/>
    <path d="M8.4 201.3s-16.3-3.9-17.2-3.8c-.9.1-4.8.5-4.8.5l-2.8-2.1 1.2-15.7 13.6-9.9 5.1 3.1 6.5 2.5-1.6 25.4z" class="st1"/>
    <path d="M161.6 181.9c-.7-1.5-1.5-11.2-1.5-12.2s-1.2-2.7-2.2-3.4c-1-.7-4.3-2.1-4.3-2.1s-.9-2.8-1.6-6.1c-.7-3.3-1-6.9-1.5-8.2-.4-1.3-3.9-6.9-4.8-7.5-.9-.6-2.5 0-2.5 0l-4.8-12.7s-5.2-7-7.2-9.3c-1.9-2.2-7.8-7.8-9.4-8.8-1.6-1-3-1.6-6-2.6s-7.9-1.7-10.4-2.2c-2.5-.4-7.8-3.9-9.3-5.2-1.5-1.3-6.9-3.4-6.9-3.4l-34.7-1.4s-7.3 3.2-11.3 4.7c-4 1.5-16.6 5.4-20.4 7.5-3.9 2.2-8.8 6.9-13.9 12.5s-6 12.1-6 12.1-.9.1-2 .7c-.7.4-2.1 2.9-3 4.6 0 0 10.5 15.9 9.6 19.5-.5 2-.3 5.9-.3 5.9s-5.1 3.6-5.6 4.3c-.5.7-2.7 8.9-2.8 10.2-.1 1.4 1.8 7.9 1.9 9.1.1 1.2-.9 1.9-1 4-.1 2 2.2 5.8 2.2 6.1.5-.1 4.6 0 4.6 0s-.5-1.6-.7-2.4c-.2-.8-.4-2.5-.3-4.9.1-2.4 4.9-11.4 5.8-12.7.9-1.3 3.2-2.1 3.2-2.1s1.5-1.3 3.6-2.2c2.1-.9-13.7 0-13.7 0l137.4-1.2 2.5.1c2.5.1 3.9 1.2 7.9 4.6 4 3.4 7.3 14.5 6.9 16.1-.4 1.6-1.9 3.4-1.9 3.4h4.3s-.1-3.1.7-5.2 0-4.6 0-4.6l.6-.7c.6-.7-.4-2.8-1.2-4.3zM1.8 198c-.1-.1-.1-.1 0 0z" style="stroke-width:.2654;stroke:#000;stroke-miterlimit:10"/>
    <path d="M154.2 197.4c-1.9.2-18.6 2.7-18.6 2.7l.5-28.2 12.3-.7s9 5.3 8.7 5.3c-.2 0 3.1 14.9 3.1 14.9l-.8 5.1c.1.1-3.3.6-5.2.9z"/>
    <path d="M157.3 196.3s-1.2.3-3.1.5c-1.9.2-18.6 2.7-18.6 2.7l.5-28.2 12.3-.7s9 5.3 8.7 5.3c-.2 0 3.1 14.9 3.1 14.9l-.8 4.6-2.1.9z" class="st1"/>
    <path d="M51.6 69.1s-1.6-1.1-2.4-.9c-.8.2-1.2 3.2-1.1 4 .1.8.7 3.9.8 4.6.1.7.5 2.9 1.2 3.6.7.6 3.9 1.1 4.1 1.6.2.5.2 22.9.2 22.9s1.6 3.7 3.5 4.8c1.9 1.1 5.3 3.2 7.3 4.1 1.9.9 3.2 1.7 3.5 2.4.3.7.3 4 .3 4s1.3.6 1.4.8l.2.4s.7-2.6 1-3c.2-.4.7-.4 1-1.3.2-.8 1.3-4.3 2.2-5 .9-.7 3.3-1.2 4-1.2.6 0 2.4-.1 3.5-.4 1.1-.3 2.6-.9 3-1.1.5-.1 1.3-.4 1.3-.4s1.8-4.8 2-5.3c.1-.5.4-2.1.4-2.1v-5.2s2.9-4.9 3.4-5.9c.4-1 1.1-2.7 1.1-3.4v-4.2l1.6-11.4s-.3-1.1-.6-1.2c-.3-.1-.7-.2-.7-.2l-.2-12.8-6.4-8.3-10.1-.6-19.2 1-5.4 11.7-.5 5.6-.4 2.4z" class="st68"/>
    <path d="M54.5 71s1.6-5.4 1.7-7.7.2-7 .8-8.5c.6-1.5 1.3-3.7 2.4-4.3 1.1-.6 4.8-.3 6.5 0 1.7.3 6.4 1.2 8.6 1.1 2.2-.1 4.8.3 6.8-.2s6.3-1.8 7-1.2 3.9 6.8 4.5 8.4.8 6.2 1.1 7.2c.3 1 0 6.4 0 6.4s.3.2.6 0 .7-7.3 1.1-8.4c.4-1.1.9-4.8.5-5.3s-1.6-5.1-2.3-5.4c-.7-.3-2.1-.7-2.3-1.2-.2-.5.1-2.8-1.1-3.2-1.2-.4-2.1-.5-2.1-.5s-.8-3.9-1.8-4.1-3.8 0-3.8 0-.5-3.6-2.2-4c-1.7-.4-4.5 1.5-4.5 1.5s-3.5-3.1-5.1-2.5-3.9 3.7-3.9 3.7-1.3-1.3-2.5-1.1c-1.2.2-2.3 3.1-2.3 3.1s-2.9-.4-4.4.8c-1.5 1.2-1.4 3.7-1.4 3.7s-3 .7-3.7 1.7c-.7 1 0 3.6 0 3.6s-2.7 2.1-2.3 5.2c.4 3.1 1.1 9.4 1.1 9.4s1.2-1 1.3-.7c.2.1 1.7 2.5 1.7 2.5z"/>
    <path d="M73.3 66.7s.1-2.1-.8-2.5-4.9-.8-7.8-.4c-2.9.4-5.4 2.7-5.5 3.3-.1.6-.5 2.4 0 2.4s3.1-2.6 4.6-2.9c1.6-.3 5.9-.1 6.6 0 .6 0 2.8.6 2.9.1zm7.2.8s.1-2.2.9-2.6 7.5-.2 8.3 0c.8.2 2.9 1.7 3.2 2.6.3.9.3 3.2 0 3.1s-.1-1.3-.8-1.7-2.2-1.7-3.1-1.6c-1 0-7.6.8-8.5.2z"/>
    <ellipse cx="66.8" cy="71.8" rx="2" ry="1.2"/>
    <ellipse cx="85.9" cy="73" rx="2" ry="1.2"/>
    <path d="M71.4 78s-1.3.1-1.7.7-1.4 2.4-.9 3.1c.4.7 1.9.7 2.6.6s1.9-.3 2.5 0 1.6 1.9 2.3 2c.7.1 2.2-1.6 3.3-1.6s2.7 0 3.1.2c.4.2-.7.6-1.6.5s-2.2-.1-2.2-.1-2 1.4-2.7 1.5c-.7.1-2.1-1.4-2.8-1.6-.7-.1-3.4-.4-4.1-.6-1-.2-1.5-1.3-1.3-2s1-2.2 1.5-2.5 2-.2 2-.2zm9.8-5.7s3-1 4.7-.8 2.9 1.1 3.8 1.2c.9.1 1.9.3 1.9.3s-2.2.5-2.7.4c-.4-.1-2.1-1.6-3.1-1.6s-3.8.7-4.6.5zm-9.7-.5s-3.5-1.4-4.7-1.2-2.9.9-3.8.9h-2.5s2 .3 3.2.3c1.2 0 3.5-.6 3.5-.6s3.5.5 4.3.6z"/>
    <path d="M93.9 85s.1 1.5 0 2.4-1.1 3.3-1.9 4.9c-.8 1.6-3.4 5.4-4.1 6.6-.7 1.2-5.1 7.6-7.8 8.6s-4.3 1.4-6 1.5-6.2-1.4-6.2-1.4c-2.1-1.3-8.3-9-8.9-10.6s-3-7.2-3.3-8.4-.6-4-.6-4 1.9.6 2.4 1.9c.4 1.3 2.6 8.1 3.4 9.3s6 8.1 7.1 8.2 2.3-.6 3.2-.4c1 .2.5 1.9 2.2 2.3 1.6.4 4.2.4 4.4-.1s1.2-2.3 2.1-2.3 1 .7 2.5-.4 6.1-8 6.9-9.1c.8-1.1 3.1-4.8 3.4-6s.4-2.5.6-2.9.6-.1.6-.1z"/>
    <path d="M63.3 90.4s-1.8-3.1-1.9-3.7c-.1-.7.6-2.4 1.3-2.2.7.2 4.8-.3 6-.6s3.7-.4 4.1-.4 2.9 2.1 3.5 1.9c.6-.1 1.7-1.4 2.7-1.4 1 0 2.6.3 3.5.5.9.2 3.5 1.3 4.3 1.3s.9-.2 1.3.1c.5.4 1.2 1.3 1.3 2s-1.5 2.9-1.6 2.5 0-2.6-.6-2.8-2.6-.6-4-.7c-1.4-.1-2.5-.8-3.4-.7s-2.8.8-3.6.7c-.8-.1-2.7-1.1-3.7-1.1s-8.9.4-8.9.4.2 2.1.1 2.5.3 1.7-.4 1.7zm20.6 4.5s-3.6 4.8-5.3 5.4c-1.6.7-6.4 0-7.2-.5s-4.7-5.5-4.7-5.5 3.7 3.5 5.1 4.1c1.4.6 4.4 1 7.7-.1 1.7-.4 4.4-3.4 4.4-3.4zM71.7 71.8s-1.9 1.5-4.9 1.5c-1.8 0-5.3-1.7-5.3-1.7s3.7 1.4 5.3 1.4c2.2 0 4.1-1.2 4.1-1.2h.8zm9.5.5s3.2 1.8 4.6 1.9c1.8.2 4.6-1 4.6-1h-.7s-2.8.8-3.8.7c-1.5-.1-4.7-1.6-4.7-1.6zm-.7-1s3.3-1.8 5.7-1.7 4.6 1.9 4.6 1.9-3.1-1.6-4.7-1.5c-1.6-.1-5.6 1.3-5.6 1.3zm-8.3-.3s-1.7-2.1-5-2.1-5.4 1.6-5.4 1.6 3.6-1.2 5.4-1.2c2.3 0 5 1.7 5 1.7z"/>
    <path d="M87.3 88.9s-1.8.4-2.7.3-3.1-.1-3.8 0c-.7.1-3.5.4-4.7.4s-3.7-.6-5.2-.7-2.7-.7-3.9-.9c-1.2-.2-2.6-.5-3-.7-.4-.2 6.3 1.2 7.5 1.4 1.1.2 3.6.6 4.7.6s4.8-.5 5.6-.5 2.9.2 3.6.2c.6-.1 1.9-.1 1.9-.1z"/>
    <path d="M83.4 90.1s-2.1 2.8-2.6 2.8c-.4 0-.4-.6-.7-.5-.3 0-.2.5-.9.6-.7 0-.5-.4-.9-.4s-.4.4-1.4.4c-1-.1-1.2-.3-1.2-.3s-1.2.3-1.5.3c-.3 0-1.3-.5-1.3-.5s-.7.1-1.2.1c-.4 0-.7-.7-.7-.7s-.7.3-.9.3-1.2-.3-1.3-.7c-.1-.3-.4-.7-.4-.7s-.7 0-1-.1C67 90.6 67 88 67 88l-3-.7s2 3.1 2.8 3.6 3.5 2.1 3.5 2.1.1-.1.5 0 1.1.8 1.1.8.2-.5.7-.4c.5 0 1.9-.1 2.1 0 .2.2.4.6.5.6s.3-.5.8-.4c.5.1 1.7.1 2.2.2.4.1.2.2.2.2h.4s.2-.4.5-.3c.2 0 1.7.1 1.7.1s3.8-3.7 4.2-4c.3-.3.6-.5.6-.5h-2.1c.1-.1 0 .6-.3.8z"/>
    <path d="M80.9 94.4s-1.3.3-2.7.3c-1.4 0-1.1.2-2.4.2s-1.8-.4-2.6-.5c-.8 0-2.8-.9-2.8-.9s2 1.1 2.9 1.3 2.3.2 2.4.3c.1.1 1.7 0 2.4-.1.6-.1 2.8-.6 2.8-.6zm-7.5-4.2c.1.1-.3 1.2-.6 1.2s-1.3-1.7-1.3-1.7 1.2 1 1.4.9c.3-.1.5-.4.5-.4zm-1.9-.2s-.2.5-.6.6c-.4 0-.9-.9-.9-.9s.2.3.7.5c.6.2.8-.2.8-.2zm3.5.2c.2.2.2.9.5.9s.9-.8.9-.9-.6.5-.9.5c-.3-.1-.5-.5-.5-.5zm-5.6-.3s-.4.1-.8 0-1-.9-1-.9.9.8 1.2.7.6.2.6.2zm8.2.4s.5.9.7.7c.2-.2.5-.6.5-.6s-.2.3-.6.2c-.4 0-.6-.3-.6-.3zm6.8-8.8s0 1-1 1.2-1.4.2-1.4.2v.6s1.6-.2 2-.5.7-1.5.4-1.5zm-31.8-9.4s.2 1.3 0 1.6c-.2.3-1 .6-1.2.5-.1-.1.6-.3.9-.8.3-.5.2-1.3.3-1.3zm-3.1-3.5s1.2 1.3 1.2 1.6-1.5 3.2-1.5 3.2.8-2 1-2.8c.2-.9-.7-2-.7-2zm3.2 7.6c.2.1.4 1.5 0 1.5s-1.9-.4-2.2-.6c-.3-.2-.7-2.9-.7-2.9s.9 2.5 1.2 2.6 1.3.2 1.5.1.2-.7.2-.7z"/>
    <path d="M9.7 128.9H135s4.8-.9 6.7 2.2c1.9 3.1 1.2 7.5 1.2 7.5l-4 66.9s-.4 4.7-2.6 6.5c-2.6 2.1-6.8 2.3-6.8 2.3l-114.8.6s-3.3.6-5.7-1.2c-2.4-1.8-2.4-7.5-2.4-7.5l-4.8-67s-.5-6.2 1-7.7c2.8-2.7 6.9-2.6 6.9-2.6z" style="stroke:#fff;stroke-width:.5307;stroke-miterlimit:10"/>
    <path d="m95.5 84.2 3.5.4c.6.1 1.1-.4 1.2-1l1.3-10.8c.1-.6-.4-1.1-1-1.2l-3.5-.3c-.6-.1-1.1.4-1.2 1L94.5 83c0 .6.4 1.1 1 1.2z"/>
    <path d="M50.7 67.6c-1.1-13.8 9-25.8 23.1-26.9 14.1-1.1 25.3 9.6 26.4 23.4" style="fill:none;stroke:#000;stroke-width:.2654;stroke-miterlimit:10"/>
    <path d="M99.1 73.2c1.1-4.9.8-9.8-.6-14.1-1.2-3.7-3.3-7.1-6.2-9.8l1.7-1.4c2.8 2.7 4.9 6.1 6.2 9.8 1.5 4.4 1.7 9.3.6 14.1m.6 1.1.8 2.2s.8-.4 1.1 0 .5 1.6.6 2.9-.5 5.5-.9 7.8c-.4 2.2-3 7-2.9 7.2s-1.4 3.2-1.6 3.4-.5.4-1.2 0-.5-1.6-.5-1.6l1.9-2.9s.7-.7 1.4-1.8c.6-1.1 1.8-3.9 2-4.5s.5-2.3.5-2.9c0-.6-.3-1.5-.3-1.5l-.9-.1-1.3 2.8 1.3-11zM83.2 91.2s-.8.1-1.1.2-.4-.3-.4-.3 0-.7-.2-.7-1.1 1-1.1 1-.6-.7-.9-.8c-.3 0-.5.4-1.1.5-.6 0-.3-.7-1.5-.7s-.7.7-1.3.7c-.6 0-.4-1-1.3-.9-.8.1-1 1-1.4.9-.4-.1-.3-1-1-.9-.7.1-.4.5-.9.5s-.7-1.1-1.1-.9-.9.3-1 .3c-.1 0-2-1.2-2-1.2l-.5-.8s8.9 1.5 9.9 1.4c1-.1 4.5-.6 5.6-.5s4.1.3 4.1.3l-2.8 1.9zm0-12s0-.9.3-.4.9 1.5 1 1.9c.1.4 0 1.2 0 1.2l-.3.2s.3-1.2-.1-1.9c-.3-.4-.8-1-.9-1z"/>
    <ellipse cx="148.8" cy="97.4" class="st71" rx="4.2" ry="2.1"/>
    <ellipse cx="148.8" cy="95.3" class="st71" rx="4.2" ry="2.1"/>
    <ellipse cx="148.8" cy="93.1" class="st71" rx="4.2" ry="2.1"/>
    <path d="M153.2 91s-.3 1.3.2-.7c.4-1.8 5.2-10.4 5.2-13.8 0-6.5-4.4-11.8-9.9-11.8s-9.9 5.3-9.9 11.8c0 3.6 5.5 11.8 5.9 13.8.4 2 .1.7.1.7" class="st71"/>
    <path d="M153.2 91c0 1.2-2 2.1-4.2 2.1-2.3 0-4.2-1-4.2-2.1" class="st71"/>
    <path d="M148.7 91.9c-.8 0-.5-.6-1.8-7.4-.3-1.3-1.1-3.2-1.4-4.5-1 0-1.9-.1-2.4-.6s-.6-1.3-.2-2.2c.3-.8 1.1-1.6 1.9-1.6.6 0 .9.5 1.5 3.3.5-.1 1-.2 1.4-.3-.6-.9-.8-1.9-.8-2.5 0-.4.3-.8.6-1 .6-.4 1.5-.5 2.4-.2.5.1.8.6.8 1.1.1.9-.5 2.2-1.4 3 .3.2.6.3.9.4.3 0 .6.1.8.1.5-1.8 1-2.6 1.5-2.8.7-.3 1.2-.1 1.5.1.6.4.9 1.2.9 2.5 0 .2-.1.5-.3.7-.5.5-1.7.6-2.7.6-.5 1.9-1.1 2.7-1.4 4.4-1 4.8-1.2 6.9-1.8 6.9zm-2.1-12.1c.2 1.1 1 2.7 1.3 4.5.4 2 .3 4.4.7 5.8.3-1 .6-4.1.9-5.5.5-2.5 1-2.8 1.4-4.2-.3 0-.5 0-.7-.1-.7-.1-1.3-.4-1.8-.9-.4.1-1.1.2-1.8.4zm6.6-2.4c-.2.2-.5.9-.8 1.9.9 0 1.5-.2 1.7-.3 0-1.3-.3-1.5-.4-1.6-.2-.1-.3-.1-.5 0zm-8.5-.8c-.3.1-.6.5-.8.9-.1.3-.2.8 0 1 .2.2.7.3 1.4.3-.2-1-.4-1.9-.6-2.2zm4.3-1c-.3 0-.6.1-.8.2-.1.1-.2.2-.2.3 0 .3.2 1.2.7 2 .4-.4.9-1.1 1-1.8.1-.4 0-.5 0-.5-.2-.2-.5-.2-.7-.2zm4.2 1.8" class="st23"/>
    <path d="m136.2 66.4-3.3-3m8.7 0-2.8-4.3m9.2 2.1v-4.5m-13.4 14.4h-4.5m30.3-4.7 3.2-3m-8.6 0 2.8-4.3m4.2 12.1h4.4" class="st71"/>
    <ellipse cx="115.7" cy="48.9" class="st68" rx="2.2" ry="1.1"/>
    <ellipse cx="115.7" cy="47.8" class="st68" rx="2.2" ry="1.1"/>
    <ellipse cx="115.7" cy="46.6" class="st68" rx="2.2" ry="1.1"/>
    <path d="M118 45.5s-.2.7.1-.4c.2-.9 2.7-5.4 2.7-7.2 0-3.4-2.3-6.2-5.2-6.2-2.9 0-5.2 2.8-5.2 6.2 0 1.9 2.9 6.2 3.1 7.2.2 1.1.1.4.1.4" class="st68"/>
    <path d="M118 45.5c0 .6-1.1 1.1-2.2 1.1-1.2 0-2.2-.5-2.2-1.1" class="st68"/>
    <path d="M115.6 46c-.4 0-.3-.3-.9-3.9-.1-.7-.6-1.7-.7-2.4-.5 0-1 0-1.3-.3-.3-.3-.3-.7-.1-1.1.2-.4.6-.8 1-.8.3 0 .5.3.8 1.7.2 0 .5-.1.7-.1-.3-.5-.4-1-.4-1.3 0-.2.1-.4.3-.5.3-.2.8-.2 1.3-.1.3.1.4.3.4.6 0 .5-.3 1.2-.7 1.6.1.1.3.2.5.2h.4c.3-.9.5-1.4.8-1.5.4-.1.6-.1.8 0 .3.2.4.6.4 1.3 0 .1 0 .2-.2.4-.3.2-.9.3-1.4.3-.3 1-.6 1.4-.7 2.3-.5 2.5-.6 3.6-1 3.6zm-1-6.4c.1.6.5 1.4.7 2.3.2 1.1.2 2.3.4 3 .1-.5.3-2.2.5-2.9.3-1.3.5-1.4.7-2.2h-.3c-.3 0-.7-.2-1-.5-.3.2-.7.3-1 .3zm3.4-1.2c-.1.1-.3.5-.4 1 .5 0 .8-.1.9-.2 0-.7-.2-.8-.2-.8h-.3zm-4.5-.4c-.1.1-.3.2-.4.5-.1.2-.1.4 0 .5.1.1.4.2.7.2 0-.6-.2-1-.3-1.2zm2.3-.5c-.2 0-.3 0-.4.1-.1 0-.1.1-.1.1 0 .2.1.6.4 1 .2-.2.5-.6.5-.9v-.3h-.4zm2.2.9" class="st23"/>
    <path d="m109.1 32.6-1.7-1.5m4.5 0-1.4-2.3m4.8 1.2v-2.4m-7 7.5h-2.4m15.9-2.5 1.7-1.5m-4.5 0 1.4-2.3m2.2 6.3h2.3" class="st68"/>
    <ellipse cx="83.3" cy="30.7" class="st72" rx=".8" ry=".4"/>
    <ellipse cx="83.3" cy="30.3" class="st72" rx=".8" ry=".4"/>
    <ellipse cx="83.3" cy="29.9" class="st72" rx=".8" ry=".4"/>
    <path d="M84.1 29.5s-.1.3 0-.1c.1-.3 1-2 1-2.7 0-1.3-.9-2.3-1.9-2.3-1.1 0-1.9 1-1.9 2.3 0 .7 1.1 2.3 1.1 2.7.1.4 0 .1 0 .1" class="st72"/>
    <path d="M84.1 29.5c0 .2-.4.4-.8.4s-.8-.2-.8-.4" class="st72"/>
    <path d="M83.3 29.7c-.1 0-.1-.1-.3-1.4 0-.3-.2-.6-.3-.9-.2 0-.4 0-.5-.1-.1-.1-.1-.3 0-.4.1-.1.2-.3.4-.3.1 0 .2.1.3.6.1 0 .2 0 .3-.1-.1-.2-.2-.4-.1-.5 0-.1.1-.2.1-.2.1-.1.3-.1.5 0 .1 0 .2.1.2.2 0 .2-.1.4-.3.6 0 0 .1.1.2.1h.2c.1-.3.2-.5.3-.5.1-.1.2 0 .3 0 .1.1.2.2.2.5 0 0 0 .1-.1.1-.1.1-.3.1-.5.1-.1.4-.2.5-.3.8-.5 1-.5 1.4-.6 1.4zm-.4-2.4c0 .2.2.5.3.9.1.4.1.9.1 1.1.1-.2.1-.8.2-1.1.1-.5.2-.5.3-.8h-.1c-.1 0-.2-.1-.4-.2-.2.1-.3.1-.4.1zm1.2-.4-.2.4c.2 0 .3 0 .3-.1.1-.3 0-.3-.1-.3.1-.1.1-.1 0 0zm-1.6-.2s-.1.1-.1.2v.2s.1.1.3.1c-.1-.3-.2-.4-.2-.5zm.8-.2h-.1v.1c0 .1 0 .2.1.4.1-.1.2-.2.2-.3v-.1c-.1-.1-.1-.1-.2-.1zm.8.4" class="st23"/>
    <path d="m80.9 24.7-.7-.5m1.7 0-.5-.9m1.7.4v-.8m-2.6 2.7h-.8m5.8-.9.7-.5m-1.7 0 .5-.9m.9 2.4h.8" class="st72"/>
    <circle cx="137.5" cy="121.5" r="1.1"/>
    <circle cx="183.6" cy="98.8" r="1.1"/>
    <circle cx="216.4" cy="66.4" r="1.1"/>
    <circle cx="93.4" cy="30.3" r="1.1"/>
    <circle cx="13.1" cy="96.9" r="1.1"/>
  </g>
</svg>
