<?xml version="1.0" encoding="UTF-8"?>
<svg version="1.1" viewBox="0 0 2048 1635" width="1280" height="1280" xmlns="http://www.w3.org/2000/svg">
<path transform="translate(0)" d="m0 0h2048v1635h-2048z" fill="#FCFCFC"/>
<path transform="translate(675,94)" d="m0 0h14l17 3 14 5 18 10 10 9 8 7 227 227 7 8 83 83 8 10 9 17 5 16 2 13v17l-3 16-5 14-9 17-7 7-6 8-320 320-8 6-11 7-13 6-9 3-10 2-14 1-20-2-16-5-15-8-8-6-10-8-9-11-7-11-6-13-4-16-1-11v-12l2-13 4-15 5-10 7-12 9-10 7-8 243-243 1-3-254-254-7-9-8-14-5-12-3-11-2-20 2-18 6-19 9-16 11-14 11-9 11-7 13-6 13-4z"/>
<path transform="translate(1312,95)" d="m0 0h17l16 3 19 7 14 9 10 9 7 7 10 15 8 19 3 11 1 8v17l-3 15-4 12-9 17-13 16-7 7-7 8-14 14-8 7-91 91-7 8-13 12-15 11-16 8-15 5-11 2h-17l-20-4-12-5-13-7-13-11-7-7-9-13-8-15-5-17-1-7v-20l3-16 6-16 7-12 11-13 7-8 136-136 11-9 12-9 15-7 18-5z" fill="#60C8DC"/>
<path transform="translate(1163,588)" d="m0 0h24l14 3 14 5 14 8 13 11 8 7 140 140 11 14 8 14 6 18 2 11v20l-5 21-7 16-9 13-16 16-14 9-13 6-15 4-14 2h-8l-18-3-17-6-13-8-13-10-16-15-113-113-8-7-8-8-11-14-7-10-9-19-4-17v-21l4-20 8-19 8-11 12-13 13-10 17-8 17-5z" fill="#60C8DC"/>
<path transform="translate(577,1249)" d="m0 0h28l16 4 16 8 13 11 9 12 7 14 7 23 2 16 1 10v21l-2 22-7 25-5 11-7 11-9 10-8 7-16 8-13 4-7 1h-20l-15-3-12-5-9-6-10-9-7-10-2-3-1 100h-58v-278h58v33l3-3 7-11 8-8 10-7 14-6z" fill="#202020"/>
<path transform="translate(310,1176)" d="m0 0h23l19 2 25 7 15 8 11 8 10 10 9 14 5 13 3 17v7l-1 1h-54l-2-1-4-12-6-9-9-7-8-4-11-3-18-1-14 2-10 4-8 5-6 7-3 6-1 10 2 8 4 6 8 7 12 5 17 5 42 9 21 6 18 8 14 10 9 9 8 14 4 13 2 21-2 18-4 13-7 14-9 10-9 9-17 10-14 5-18 5-16 2h-38l-19-3-21-6-17-9-9-7-11-10-7-10-5-11-4-14-1-6v-10h57l5 13 6 8 8 6 13 6 14 3h25l15-4 10-5 7-6 5-9 1-5v-11l-5-10-7-6-13-6-18-5-41-9-21-6-21-10-14-11-9-11-7-14-3-11-1-7v-20l3-14 4-11 7-11 17-17 15-9 11-5 21-6z" fill="#202020"/>
<path transform="translate(1006,1249)" d="m0 0h33l16 3 15 6 10 6 14 11 7 8 10 15 5 11 5 20 2 20v21l-1 2h-142l2 16 5 12 6 9 7 6 10 5 12 2h11l12-3 12-7 7-8 3-6h54l-2 10-5 12-9 14-13 13-14 9-15 6-17 4-11 1h-23l-18-3-18-6-14-8-14-12-10-13-8-16-5-16-3-17-1-21 2-22 4-17 6-15 8-14 11-13 11-9 14-8 18-6z" fill="#202020"/>
<path transform="translate(783,1249)" d="m0 0h33l18 4 15 6 13 9 11 9 13 18 7 15 4 15 2 16v31l-142 1v7l4 15 6 11 8 8 12 6 11 2h12l12-3 10-6 5-5 5-7 1-3h54l-1 9-6 15-10 14-10 10-14 9-16 7-17 4-11 1h-23l-14-2-17-5-16-8-12-9-8-8-9-13-8-17-5-19-2-18v-18l2-19 4-16 6-15 8-14 12-13 8-7 14-8 12-5 12-3z" fill="#202020"/>
<path transform="translate(1589,1253)" d="m0 0h64l4 13 25 93 13 48 1 5 2-2 19-70 17-63 6-23 1-1h62l-12 37-14 41-29 87-14 41-9 24-6 11-9 12-8 8-13 8-13 5-13 3-8 1h-34l-11-2v-43h27l11-3 7-6 6-13-1-7-17-48-19-54-17-48-18-51z" fill="#202020"/>
<path transform="translate(1139,1253)" d="m0 0h66l10 19 12 23 12 22 3 4 10-19 15-29 11-20h64l-5 10-15 23-11 18-24 38-8 13 1 5 13 22 16 26 14 23 15 24 3 7-10 1h-52l-4-5-14-25-12-22-10-18-4 5-12 23-10 18-12 22-3 2h-59l-1-2 13-21 14-22 15-24 12-19 10-16-2-5-12-19-16-26-15-24-16-26-2-3z" fill="#202020"/>
<path transform="translate(1529,1177)" d="m0 0h40l7 1v40h-21l-10 3-5 4-3 5-2 13 1 9 40 1v44l-39 1-1 164-1 1h-57l-1-165-27-1-1-22v-21l1-1 27-1 1-23 2-14 5-14 6-8 10-8 13-5z" fill="#1F1F1F"/>
<path transform="translate(1366,1253)" d="m0 0h58v150l-1 60h-56l-1-1z" fill="#202020"/>
<path transform="translate(563,1298)" d="m0 0h18l10 4 10 7 7 10 4 8 4 16 1 7v16l-4 20-8 16-9 9-10 5-6 2h-15l-10-3-8-5-6-5-9-14-5-17-1-6v-20l3-15 5-12 8-11 10-8z" fill="#FCFCFC"/>
<path transform="translate(1389,1167)" d="m0 0h11l10 3 8 6 5 8 3 10v8l-4 11-7 8-9 5-4 1h-14l-9-3-10-9-4-8-1-4v-11l4-11 7-8 10-5z" fill="#202020"/>
<path transform="translate(793,1293)" d="m0 0h15l10 3 10 7 7 8 5 10 3 12-1 2h-83l-2-2 2-9 4-10 8-10 8-6 9-4z" fill="#FCFCFC"/>
<path transform="translate(1016,1293)" d="m0 0h16l11 4 8 6 8 9 5 11 2 7-1 5h-83l-1-1 1-9 5-12 7-9 10-7z" fill="#FCFCFC"/>
</svg>
